<svg width="1280" height="720" xmlns="http://www.w3.org/2000/svg" xmlns:xlink="http://www.w3.org/1999/xlink" overflow="hidden"><defs><clipPath id="clip0"><rect x="0" y="0" width="1280" height="720"/></clipPath></defs><g clip-path="url(#clip0)"><rect x="0" y="0" width="1280" height="720" fill="#FFFFFF"/><path d="M275 220.549C275 200.363 291.363 184 311.549 184L512.451 184C532.636 184 549 200.363 549 220.549L549 500.451C549 520.636 532.636 537 512.451 537L311.549 537C291.363 537 275 520.636 275 500.451Z" stroke="#009145" stroke-width="8" stroke-miterlimit="8" fill="none" fill-rule="evenodd"/><path d="M460 194.271C460 188.598 464.598 184 470.271 184L538.729 184C544.401 184 549 188.598 549 194.271L549 250.729C549 256.402 544.401 261 538.729 261L470.271 261C464.598 261 460 256.402 460 250.729Z" stroke="#009145" stroke-width="8" stroke-miterlimit="8" fill="none" fill-rule="evenodd"/><path d="M497.724 111.772 631.624 220.198 581.253 282.404 447.353 173.978Z" fill="#FFFFFF" fill-rule="evenodd"/><path d="M311 362 477.592 362" stroke="#009145" stroke-width="8" stroke-linecap="round" stroke-miterlimit="8" fill="none" fill-rule="evenodd"/><path d="M460 183 549.465 260.597" stroke="#009145" stroke-width="8" stroke-miterlimit="8" fill="none" fill-rule="evenodd"/><path d="M441 184 461.841 184" stroke="#009145" stroke-width="8" stroke-miterlimit="8" fill="none" fill-rule="evenodd"/><path d="M311 309 477.592 309" stroke="#009145" stroke-width="8" stroke-linecap="round" stroke-miterlimit="8" fill="none" fill-rule="evenodd"/><path d="M311 418 477.592 418" stroke="#009145" stroke-width="8" stroke-linecap="round" stroke-miterlimit="8" fill="none" fill-rule="evenodd"/><path d="M466 425C466 385.236 499.131 353 540 353 580.869 353 614 385.236 614 425 614 464.764 580.869 497 540 497 499.131 497 466 464.764 466 425Z" stroke="#FFFFFF" stroke-width="8" stroke-miterlimit="8" fill="#FFFFFF" fill-rule="evenodd"/><path d="M479 426C479 392.311 506.534 365 540.5 365 574.466 365 602 392.311 602 426 602 459.689 574.466 487 540.5 487 506.534 487 479 459.689 479 426Z" stroke="#009145" stroke-width="8" stroke-miterlimit="8" fill="#FFFFFF" fill-rule="evenodd"/><path d="M582.198 481.256C579.096 478.171 579.083 473.157 582.167 470.056L582.167 470.056C585.251 466.954 590.266 466.941 593.367 470.025L635.433 511.861C638.534 514.945 638.548 519.959 635.464 523.061L635.464 523.06C632.379 526.162 627.365 526.176 624.264 523.091Z" stroke="#009145" stroke-width="2" stroke-miterlimit="8" fill="#009145" fill-rule="evenodd"/><path d="M229 529.5C229 487.25 264.146 453 307.5 453 350.854 453 386 487.25 386 529.5 386 571.75 350.854 606 307.5 606 264.146 606 229 571.75 229 529.5Z" stroke="#FFFFFF" stroke-width="8" stroke-miterlimit="8" fill="#FFFFFF" fill-rule="evenodd"/><path d="M1083.46 446.301 574.857 49.2593 608.755 12.1916Z" fill="#E3EEC9" fill-rule="evenodd"/><path d="M1084.17 423.033 630.416 8.13458 667.226-26.0423Z" fill="#E3EEC9" fill-rule="evenodd"/><path d="M1095.31 469.746C1104.87 476.894 1106.83 490.442 1099.68 500.007L1098.14 502.076C1090.99 511.641 1077.44 513.601 1067.88 506.454L512.029 91.0915C502.464 83.9441 500.504 70.3959 507.652 60.8309L509.198 58.7612C516.346 49.1962 529.894 47.2363 539.459 54.3838Z" fill="#E3EEC9" fill-rule="evenodd"/><path d="M0 50.2301 643.269 0 643.269 50.2301Z" fill="#E3EEC9" fill-rule="evenodd" transform="matrix(0.737957 -0.674848 -0.674848 -0.737957 1119.76 483.368)"/><path d="M0 50.2301 612.793 0 612.793 50.2301Z" fill="#E3EEC9" fill-rule="evenodd" transform="matrix(0.680407 -0.732835 -0.732835 -0.680407 1121.96 457.21)"/><path d="M1305.05 315.216C1315.04 308.558 1328.53 311.255 1335.19 321.242L1335.19 321.242C1341.85 331.228 1339.15 344.721 1329.16 351.379L1095.26 507.339C1085.27 513.998 1071.78 511.3 1065.12 501.314L1065.12 501.314C1058.46 491.328 1061.16 477.835 1071.14 471.176Z" fill="#E3EEC9" fill-rule="evenodd"/><path d="M618.116 113.602 590.686 150.309 489.742 74.8776 517.172 38.1699Z" fill="#E3EEC9" fill-rule="evenodd"/><g><g><g><path d="M307.5 462.396C270.969 462.396 241.396 491.969 241.396 528.5 241.396 565.031 270.969 594.604 307.5 594.604 344.031 594.604 373.604 565.031 373.604 528.5 373.604 491.969 344.031 462.396 307.5 462.396ZM307.5 577.208C302.629 577.208 298.802 573.381 298.802 568.51 298.802 563.64 302.629 559.812 307.5 559.812 312.371 559.812 316.198 563.64 316.198 568.51 316.198 573.381 312.371 577.208 307.5 577.208ZM312.719 536.85C312.719 541.373 312.719 552.854 312.719 552.854L302.281 552.854 302.281 526.76 307.5 526.76C319.155 526.76 326.635 519.976 326.635 509.365 326.635 498.405 318.459 490.229 307.5 490.229 295.497 490.229 288.365 497.361 288.365 509.365L277.927 509.365C277.927 491.621 289.756 479.792 307.5 479.792 324.026 479.792 337.073 492.839 337.073 509.365 337.073 524.151 327.331 534.763 312.719 536.85Z" fill="#7F7F7F"/></g></g></g></g></svg>