<svg xmlns="http://www.w3.org/2000/svg" xmlns:xlink="http://www.w3.org/1999/xlink" width="2000" zoomAndPan="magnify" viewBox="0 0 1500 1499.999933" height="2000" preserveAspectRatio="xMidYMid meet" version="1.0"><defs><clipPath id="3988e441c4"><path d="M 384.972656 150 L 1074.222656 150 L 1074.222656 1032.75 L 384.972656 1032.75 Z M 384.972656 150 " clip-rule="nonzero"/></clipPath><clipPath id="70057dfbe1"><path d="M 523.34375 403 L 660 403 L 660 580 L 523.34375 580 Z M 523.34375 403 " clip-rule="nonzero"/></clipPath><clipPath id="fa1ccbb9c8"><path d="M 684 340.460938 L 748 340.460938 L 748 542 L 684 542 Z M 684 340.460938 " clip-rule="nonzero"/></clipPath><clipPath id="aca8debfb9"><path d="M 531 556 L 878 556 L 878 842.210938 L 531 842.210938 Z M 531 556 " clip-rule="nonzero"/></clipPath><clipPath id="ea24254add"><path d="M 384.972656 1032.65625 L 1244.472656 1032.65625 L 1244.472656 1387.40625 L 384.972656 1387.40625 Z M 384.972656 1032.65625 " clip-rule="nonzero"/></clipPath><clipPath id="90c5bfeee3"><path d="M 1 84 L 723 84 L 723 355.023438 L 1 355.023438 Z M 1 84 " clip-rule="nonzero"/></clipPath><clipPath id="f795fcef95"><rect x="0" width="861" y="0" height="356"/></clipPath></defs><rect x="-150" width="1800" fill="#ffffff" y="-149.999993" height="1799.99992" fill-opacity="1"/><rect x="-150" width="1800" fill="#ffffff" y="-149.999993" height="1799.99992" fill-opacity="1"/><g clip-path="url(#3988e441c4)"><path fill="#000000" d="M 1074.222656 340.34375 C 1074.222656 336.203125 1072.84375 333.445312 1070.085938 330.6875 L 893.636719 154.136719 C 890.882812 151.378906 886.746094 150 883.988281 150 L 426.328125 150 C 402.890625 150 384.972656 167.929688 384.972656 191.378906 L 384.972656 991.371094 C 384.972656 1013.441406 402.890625 1032.75 426.328125 1032.75 L 1032.867188 1032.75 C 1056.300781 1032.75 1074.222656 1014.820312 1074.222656 991.371094 Z M 1046.652344 991.371094 C 1046.652344 998.265625 1039.757812 1005.164062 1032.867188 1005.164062 L 426.328125 1005.164062 C 419.433594 1005.164062 412.542969 999.648438 412.542969 991.371094 L 412.542969 191.378906 C 412.542969 184.480469 418.054688 177.585938 426.328125 177.585938 L 867.445312 177.585938 L 867.445312 297.585938 C 867.445312 330.6875 893.636719 356.894531 925.34375 356.894531 L 977.726562 356.894531 C 985.996094 356.894531 991.511719 351.378906 991.511719 343.101562 C 991.511719 334.824219 985.996094 329.308594 977.726562 329.308594 L 925.34375 329.308594 C 908.800781 329.308594 895.015625 315.515625 895.015625 297.585938 L 895.015625 194.136719 L 1046.652344 345.859375 Z M 1046.652344 991.371094 " fill-opacity="1" fill-rule="nonzero"/></g><g clip-path="url(#70057dfbe1)"><path fill="#000000" d="M 577.15625 407.882812 L 533.621094 425.128906 C 529.699219 426.699219 526.5625 429.832031 524.992188 433.363281 C 523.425781 437.28125 523.425781 441.59375 524.992188 445.121094 L 539.894531 480.792969 C 542.25 486.671875 548.132812 490.59375 554.40625 490.59375 C 556.367188 490.59375 558.328125 490.199219 560.289062 489.417969 L 579.898438 481.578125 L 620.6875 579.574219 L 629.707031 579.574219 C 629.707031 574.871094 630.492188 570.558594 632.0625 566.246094 L 594.410156 476.089844 L 601.472656 473.34375 L 636.769531 557.230469 C 639.90625 552.527344 644.21875 549 648.925781 545.863281 L 616.375 467.464844 L 654.808594 452.570312 C 656.769531 451.785156 658.339844 450.21875 659.125 448.257812 C 659.90625 446.296875 659.90625 443.945312 659.125 441.984375 C 646.179688 410.625 609.316406 395.339844 577.15625 407.882812 Z M 641.082031 441.203125 L 603.824219 455.707031 C 603.824219 455.707031 603.433594 455.707031 603.433594 455.707031 L 581.46875 464.328125 C 581.46875 464.328125 581.078125 464.328125 581.078125 464.328125 L 554.40625 474.914062 L 539.503906 439.632812 L 583.039062 422.386719 C 588.921875 420.035156 594.804688 419.25 600.292969 419.25 C 616.765625 419.25 632.0625 427.480469 641.082031 441.203125 Z M 641.082031 441.203125 " fill-opacity="1" fill-rule="nonzero"/></g><path fill="#000000" d="M 848.160156 394.554688 C 846.59375 392.203125 844.238281 391.027344 841.496094 391.417969 C 822.667969 392.203125 805.804688 403.960938 799.136719 421.601562 C 792.078125 439.242188 796.390625 458.839844 809.335938 472.167969 L 772.46875 559.191406 C 776.390625 565.070312 778.351562 572.125 778.742188 579.964844 L 780.703125 579.964844 L 826.199219 473.34375 C 827.769531 470.207031 826.589844 466.289062 823.847656 464.328125 C 812.863281 455.3125 808.550781 440.808594 813.648438 427.875 C 816.394531 420.425781 821.886719 414.546875 828.945312 411.410156 L 823.0625 426.699219 C 821.886719 429.441406 822.667969 432.1875 824.238281 434.539062 L 836.394531 449.433594 C 837.964844 451.394531 840.710938 452.570312 843.457031 452.175781 L 862.28125 449.433594 C 865.027344 449.042969 867.378906 447.082031 868.554688 444.730469 L 874.4375 429.441406 C 877.183594 436.496094 877.183594 444.730469 874.4375 451.785156 C 869.339844 464.722656 856.398438 472.953125 842.277344 471.777344 C 838.75 471.386719 835.613281 473.738281 834.433594 476.871094 L 796.785156 579.574219 L 813.648438 579.574219 L 847.378906 486.671875 C 866.203125 485.886719 882.675781 474.128906 889.34375 456.488281 C 896.011719 439.242188 892.085938 419.25 878.753906 405.921875 C 876.792969 403.960938 874.046875 403.179688 871.695312 403.570312 C 868.949219 403.960938 866.988281 405.921875 865.8125 408.273438 L 856.007812 433.363281 L 845.808594 434.929688 L 839.535156 427.089844 L 849.339844 402.003906 C 850.121094 399.648438 849.730469 396.90625 848.160156 394.554688 Z M 848.160156 394.554688 " fill-opacity="1" fill-rule="nonzero"/><g clip-path="url(#fa1ccbb9c8)"><path fill="#000000" d="M 684.617188 528.617188 L 684.617188 540.375 L 700.304688 540.375 L 700.304688 530.96875 L 706.972656 521.167969 C 708.539062 518.425781 708.539062 515.289062 706.972656 512.542969 L 700.304688 501.960938 L 700.304688 485.496094 L 731.679688 485.496094 L 731.679688 501.960938 L 725.011719 511.761719 C 723.050781 514.503906 723.050781 518.03125 725.011719 520.382812 L 731.679688 530.183594 L 731.679688 540.375 L 738.738281 540.375 C 741.484375 540.375 744.621094 540.765625 747.367188 541.160156 L 747.367188 527.441406 C 747.367188 525.871094 746.976562 524.304688 746.191406 523.128906 L 741.09375 515.679688 L 746.191406 508.230469 C 746.976562 507.054688 747.367188 505.488281 747.367188 503.921875 L 747.367188 477.65625 C 747.367188 473.34375 743.839844 469.816406 739.523438 469.816406 L 723.835938 469.816406 L 723.835938 402.394531 L 733.25 392.988281 C 734.816406 391.417969 735.601562 389.457031 735.601562 387.5 L 735.601562 348.300781 C 735.601562 343.988281 732.070312 340.460938 727.757812 340.460938 L 704.226562 340.460938 C 699.910156 340.460938 696.382812 343.988281 696.382812 348.300781 L 696.382812 387.5 C 696.382812 389.457031 697.167969 391.417969 698.734375 392.988281 L 708.148438 402.394531 L 708.148438 469.816406 L 692.460938 469.816406 C 688.144531 469.816406 684.617188 473.34375 684.617188 477.65625 L 684.617188 504.3125 C 684.617188 505.878906 685.007812 507.054688 685.792969 508.625 L 690.890625 516.855469 L 685.792969 524.304688 C 685.007812 525.480469 684.617188 527.046875 684.617188 528.617188 Z M 712.070312 356.140625 L 719.914062 356.140625 L 719.914062 384.363281 L 715.992188 388.28125 L 712.070312 384.363281 Z M 712.070312 356.140625 " fill-opacity="1" fill-rule="nonzero"/></g><g clip-path="url(#aca8debfb9)"><path fill="#000000" d="M 557.152344 842.210938 L 851.691406 842.210938 C 861.496094 842.210938 869.339844 834.371094 869.339844 824.570312 L 869.339844 675.613281 C 874.046875 672.867188 877.183594 668.164062 877.183594 662.285156 L 877.183594 610.148438 C 877.183594 601.917969 870.515625 595.253906 862.28125 595.253906 L 763.054688 595.253906 L 763.054688 580.359375 C 763.054688 567.03125 752.074219 556.054688 738.738281 556.054688 L 669.714844 556.054688 C 656.378906 556.054688 645.398438 567.03125 645.398438 580.359375 L 645.398438 595.253906 L 546.5625 595.253906 C 538.328125 595.253906 531.660156 601.917969 531.660156 610.148438 L 531.660156 662.285156 C 531.660156 668.164062 534.796875 673.261719 539.503906 675.613281 L 539.503906 824.570312 C 539.503906 834.371094 547.347656 842.210938 557.152344 842.210938 Z M 851.300781 826.53125 L 557.152344 826.53125 C 555.976562 826.53125 555.191406 825.746094 555.191406 824.570312 L 555.191406 681.492188 L 676.773438 726.570312 L 676.773438 740.292969 C 676.773438 748.914062 683.832031 755.972656 692.460938 755.972656 L 715.992188 755.972656 C 724.621094 755.972656 731.679688 748.914062 731.679688 740.292969 L 731.679688 726.570312 L 853.261719 681.492188 L 853.261719 824.570312 C 853.261719 825.746094 852.476562 826.53125 851.300781 826.53125 Z M 715.992188 693.253906 L 692.460938 693.253906 C 683.832031 693.253906 676.773438 700.308594 676.773438 708.933594 L 676.773438 710.109375 L 547.347656 661.894531 L 547.347656 610.933594 L 861.105469 610.933594 L 861.105469 661.894531 L 731.679688 710.109375 L 731.679688 708.933594 C 731.679688 700.308594 724.621094 693.253906 715.992188 693.253906 Z M 715.992188 740.292969 L 692.460938 740.292969 L 692.460938 708.933594 L 715.992188 708.933594 Z M 661.085938 580.359375 C 661.085938 575.65625 665.007812 571.734375 669.714844 571.734375 L 739.132812 571.734375 C 743.839844 571.734375 747.761719 575.65625 747.761719 580.359375 L 747.761719 595.253906 L 661.085938 595.253906 Z M 661.085938 580.359375 " fill-opacity="1" fill-rule="nonzero"/></g><g clip-path="url(#ea24254add)"><g transform="matrix(1, 0, 0, 1, 384, 1032)"><g clip-path="url(#f795fcef95)"><g clip-path="url(#90c5bfeee3)"><path fill="#000000" d="M 379.625 355.023438 C 410.136719 355.023438 440.855469 350.011719 472.203125 339.984375 L 640.636719 286.085938 L 708.34375 278.984375 C 717.121094 278.148438 723.597656 270.210938 722.554688 261.4375 C 721.71875 252.664062 713.777344 246.1875 705 247.230469 L 635.621094 254.542969 C 634.574219 254.753906 633.53125 254.960938 632.484375 255.171875 L 462.378906 309.691406 C 390.285156 332.878906 320.070312 325.988281 254.03125 289.222656 C 191.339844 254.542969 145.574219 227.804688 109.839844 205.035156 C 43.386719 162.628906 35.863281 148.214844 35.027344 145.917969 C 32.9375 137.351562 31.476562 126.28125 36.910156 121.683594 C 40.671875 118.550781 57.597656 109.777344 120.289062 128.578125 C 161.25 140.902344 204.925781 159.914062 233.761719 172.445312 C 244.839844 177.25 253.613281 181.011719 259.046875 183.101562 C 260.929688 183.726562 262.808594 184.144531 264.691406 184.144531 L 456.527344 184.144531 C 466.351562 184.144531 496.441406 184.144531 501.667969 191.039062 C 502.503906 192.082031 502.503906 195.214844 501.25 199.183594 C 498.949219 207.75 503.964844 216.523438 512.535156 218.820312 C 521.101562 221.121094 529.878906 216.105469 532.179688 207.542969 C 537.191406 189.785156 532.179688 178.085938 527.164062 171.609375 C 513.578125 153.644531 485.996094 152.183594 456.527344 152.183594 L 267.824219 152.183594 C 262.808594 150.09375 255.496094 146.960938 246.71875 143.199219 C 155.605469 103.71875 55.296875 64.238281 16.429688 97.242188 C 6.398438 105.597656 -3.632812 122.308594 4.308594 154.0625 C 10.367188 177.667969 52.371094 214.644531 238.777344 317.632812 C 284.125 342.488281 331.351562 355.023438 379.625 355.023438 Z M 379.625 355.023438 " fill-opacity="1" fill-rule="nonzero"/></g><path fill="#000000" d="M 283.707031 174.953125 C 285.378906 174.953125 287.257812 174.742188 288.929688 174.117188 C 297.289062 171.191406 301.679688 162 298.753906 153.644531 C 292.484375 135.472656 292.273438 122.101562 298.125 114.371094 C 313.382812 94.527344 370.640625 98.914062 408.464844 101.628906 C 422.675781 102.675781 435.839844 103.71875 447.125 103.71875 C 448.171875 103.71875 449.214844 103.71875 450.050781 103.507812 C 461.125 101.421875 474.292969 96.199219 490.800781 89.304688 C 514.625 79.695312 544.296875 67.789062 578.152344 61.3125 C 604.484375 56.296875 636.664062 56.507812 662.785156 56.507812 C 681.386719 56.507812 697.476562 56.714844 708.761719 54.835938 C 717.539062 53.582031 723.597656 45.4375 722.136719 36.660156 C 720.882812 27.886719 712.523438 21.828125 703.953125 23.292969 C 695.179688 24.546875 679.503906 24.546875 662.785156 24.546875 C 635.410156 24.335938 601.347656 24.335938 572.09375 29.976562 C 535.101562 37.078125 503.757812 49.613281 478.679688 59.851562 C 465.097656 65.28125 453.183594 70.085938 445.246094 71.964844 C 435.632812 71.964844 423.511719 70.921875 410.761719 70.085938 C 360.609375 66.324219 298.335938 61.730469 272.421875 95.152344 C 259.464844 112.074219 258.003906 135.472656 268.035156 164.507812 C 270.960938 170.773438 277.019531 174.953125 283.707031 174.953125 Z M 283.707031 174.953125 " fill-opacity="1" fill-rule="nonzero"/><path fill="#000000" d="M 706.671875 278.984375 L 843.757812 278.984375 C 852.535156 278.984375 859.847656 271.882812 859.847656 262.898438 L 859.847656 25.589844 C 859.847656 16.816406 852.746094 9.503906 843.757812 9.503906 L 706.878906 9.503906 C 698.101562 9.503906 690.789062 16.609375 690.789062 25.589844 L 690.789062 262.898438 C 690.789062 271.882812 697.894531 278.984375 706.671875 278.984375 Z M 827.667969 247.023438 L 722.761719 247.023438 L 722.761719 41.675781 L 827.667969 41.675781 Z M 827.667969 247.023438 " fill-opacity="1" fill-rule="nonzero"/><path fill="#000000" d="M 283.707031 184.144531 C 292.484375 184.144531 299.796875 177.042969 299.796875 168.058594 L 299.796875 158.867188 C 299.796875 150.09375 292.691406 142.78125 283.707031 142.78125 C 274.722656 142.78125 267.617188 149.886719 267.617188 158.867188 L 267.617188 168.058594 C 267.617188 176.832031 274.929688 184.144531 283.707031 184.144531 Z M 283.707031 184.144531 " fill-opacity="1" fill-rule="nonzero"/></g></g></g></svg>