<svg width="1056" height="1219" xmlns="http://www.w3.org/2000/svg" xmlns:xlink="http://www.w3.org/1999/xlink" overflow="hidden"><g><rect x="0" y="0" width="1056" height="1219" fill="#FFFFFF"/><path d="M178 631.667C178 620.253 187.253 611 198.667 611L281.333 611C292.747 611 302 620.253 302 631.667L302 867.333C302 878.747 292.747 888 281.333 888L198.667 888C187.253 888 178 878.747 178 867.333Z" stroke="#084F6A" stroke-width="9.73333" stroke-linejoin="round" stroke-miterlimit="10" fill="none" fill-rule="evenodd"/><path d="M589 60.5005C589 45.3124 601.312 33 616.5 33L933.5 33C948.688 33 961 45.3124 961 60.5005L961 170.499C961 185.688 948.688 198 933.5 198L616.5 198C601.312 198 589 185.688 589 170.499Z" stroke="#666666" stroke-width="2" stroke-linejoin="round" stroke-miterlimit="10" fill="#FFFFFF" fill-rule="evenodd"/><text font-family="Arial,Arial_MSFontService,sans-serif" font-weight="700" font-size="46.1733" transform="translate(639.206 105)">Ready</text><text font-family="Arial,Arial_MSFontService,sans-serif" font-weight="700" font-size="46.1733" transform="translate(777.706 105)">-</text><text font-family="Arial,Arial_MSFontService,sans-serif" font-weight="700" font-size="46.1733" transform="translate(793.039 105)">Made</text><text font-family="Arial,Arial_MSFontService,sans-serif" font-weight="700" font-size="46.1733" transform="translate(645.539 160)">Slide Decks</text><path d="M95 60.5005C95 45.3124 107.312 33 122.5 33L439.499 33C454.688 33 467 45.3124 467 60.5005L467 170.499C467 185.688 454.688 198 439.499 198L122.5 198C107.312 198 95 185.688 95 170.499Z" stroke="#666666" stroke-width="2" stroke-linejoin="round" stroke-miterlimit="10" fill="#FFFFFF" fill-rule="evenodd"/><text font-family="Arial,Arial_MSFontService,sans-serif" font-weight="700" font-size="46.1733" transform="translate(170.627 105)">Pedagogy</text><text font-family="Arial,Arial_MSFontService,sans-serif" font-weight="700" font-size="46.1733" transform="translate(189.874 160)">Training</text><path d="M573 331.167C573 323.895 578.895 318 586.167 318L963.833 318C971.105 318 977 323.895 977 331.167L977 383.833C977 391.105 971.105 397 963.833 397L586.167 397C578.895 397 573 391.105 573 383.833Z" fill="#7030A0" fill-rule="evenodd"/><text fill="#FFFFFF" font-family="Arial,Arial_MSFontService,sans-serif" font-weight="700" font-size="37.3333" transform="translate(633.789 371)">Presenter notes</text><path d="M573 513C573 505.82 578.82 500 586 500L964 500C971.18 500 977 505.82 977 513L977 565C977 572.18 971.18 578 964 578L586 578C578.82 578 573 572.18 573 565Z" fill="#0F9ED5" fill-rule="evenodd"/><text fill="#FFFFFF" font-family="Arial,Arial_MSFontService,sans-serif" font-weight="700" font-size="37.3333" transform="translate(604.789 553)">Didactic guidelines</text><path d="M573 422C573 414.82 578.82 409 586 409L964 409C971.18 409 977 414.82 977 422L977 474C977 481.18 971.18 487 964 487L586 487C578.82 487 573 481.18 573 474Z" fill="#A02B93" fill-rule="evenodd"/><text fill="#FFFFFF" font-family="Arial,Arial_MSFontService,sans-serif" font-weight="700" font-size="37.3333" transform="translate(611.956 462)">Practical activities</text><rect x="101" y="598" width="225" height="66" fill="#FFFFFF"/><path d="M573 604C573 596.82 578.82 591 586 591L964 591C971.18 591 977 596.82 977 604L977 656C977 663.18 971.18 669 964 669L586 669C578.82 669 573 663.18 573 656Z" fill="#1155CC" fill-rule="evenodd"/><text fill="#FFFFFF" font-family="Arial,Arial_MSFontService,sans-serif" font-weight="700" font-size="37.3333" transform="translate(622.373 644)">Accessibility tips</text><path d="M500.574 122.18 519.68 122.18 519.68 103.441 537.32 103.441 537.32 122.18 556.426 122.18 556.426 139.82 537.32 139.82 537.32 158.559 519.68 158.559 519.68 139.82 500.574 139.82Z" stroke="#0E2841" stroke-miterlimit="8" fill="#E8E8E8" fill-rule="evenodd"/><g><g><g><path d="M600.25 425.463 571.667 425.463 571.667 132.484 600.25 132.484C604.197 132.484 607.396 129.285 607.396 125.338 607.396 121.391 604.197 118.192 600.25 118.192L350.146 118.192 350.146 89.6087C350.146 85.6621 346.947 82.4629 343 82.4629 339.053 82.4629 335.854 85.6621 335.854 89.6087L335.854 118.192 85.75 118.192C81.8034 118.192 78.6042 121.391 78.6042 125.338 78.6042 129.285 81.8034 132.484 85.75 132.484L114.333 132.484 114.333 425.463 85.75 425.463C81.8034 425.463 78.6042 428.662 78.6042 432.609 78.6042 436.555 81.8034 439.755 85.75 439.755L325.75 439.755 198.604 566.9C195.862 569.739 195.941 574.263 198.78 577.005 201.549 579.679 205.939 579.679 208.708 577.005L335.733 449.98C335.797 449.916 335.854 449.937 335.854 450.03L335.854 596.963C335.854 600.91 339.053 604.109 343 604.109 346.947 604.109 350.146 600.91 350.146 596.963L350.146 450.03C350.146 449.937 350.203 449.909 350.267 449.98L477.292 577.005C480.131 579.746 484.654 579.668 487.396 576.829 490.071 574.06 490.071 569.669 487.396 566.9L360.25 439.755 600.25 439.755C604.197 439.755 607.396 436.555 607.396 432.609 607.396 428.662 604.197 425.463 600.25 425.463ZM128.625 425.463 128.625 132.484 557.375 132.484 557.375 425.463Z" transform="matrix(1 0 0 1.37026 432 114)"/></g></g></g><path d="M239 704 240.226 887.403" stroke="#084F6A" stroke-width="10" stroke-linecap="round" stroke-linejoin="round" stroke-miterlimit="10" fill="none" fill-rule="evenodd"/><path d="M302 534 302 687.7" stroke="#084F6A" stroke-width="9.73333" stroke-linecap="round" stroke-linejoin="round" stroke-miterlimit="10" fill="none" fill-rule="evenodd"/><path d="M185 415C185 386.833 207.61 364 235.5 364 263.39 364 286 386.833 286 415 286 443.167 263.39 466 235.5 466 207.61 466 185 443.167 185 415Z" stroke="#084F6A" stroke-width="9.73333" stroke-linejoin="round" stroke-miterlimit="10" fill="none" fill-rule="evenodd"/><path d="M349.064 551.002C342.158 544.214 342.063 533.113 348.851 526.207L408.532 465.495C415.32 458.59 426.421 458.495 433.327 465.283L433.327 465.283C440.232 472.071 440.327 483.172 433.539 490.077L373.858 550.789C367.07 557.695 355.969 557.79 349.064 551.002Z" stroke="#084F6A" stroke-width="9.73333" stroke-linejoin="round" stroke-miterlimit="10" fill="none" fill-rule="evenodd"/><path d="M107.053 583.004C100.147 576.216 100.052 565.115 106.84 558.209L172.536 491.379C179.324 484.474 190.425 484.378 197.33 491.167L197.33 491.167C204.236 497.955 204.331 509.056 197.543 515.961L131.847 582.792C125.059 589.697 113.958 589.792 107.053 583.004Z" stroke="#084F6A" stroke-width="9.73333" stroke-linejoin="round" stroke-miterlimit="10" fill="none" fill-rule="evenodd"/><path d="M266.198 495.315C270.713 486.748 281.317 483.463 289.884 487.978L365.199 527.668C373.766 532.182 377.051 542.786 372.536 551.353L372.536 551.353C368.022 559.92 357.418 563.204 348.851 558.69L273.535 519C264.969 514.486 261.684 503.882 266.198 495.315Z" stroke="#084F6A" stroke-width="9.73333" stroke-linejoin="round" stroke-miterlimit="10" fill="none" fill-rule="evenodd"/><path d="M173 507.885C173 498.56 180.56 491 189.885 491L281.115 491C290.44 491 298 498.56 298 507.885L298 563.115C298 572.44 290.44 580 281.115 580L189.885 580C180.56 580 173 572.44 173 563.115Z" fill="#FFFFFF" fill-rule="evenodd"/><path d="M184.98 530.06C189.195 525.964 195.933 526.059 200.029 530.274L242.634 574.109C246.73 578.324 246.634 585.061 242.419 589.158L207.235 623.355C203.02 627.452 196.282 627.356 192.185 623.141L149.581 579.307C145.484 575.092 145.58 568.354 149.795 564.258Z" stroke="#084F6A" stroke-width="9.73333" stroke-linejoin="round" stroke-miterlimit="10" fill="none" fill-rule="evenodd"/><path d="M108.153 557.372C115.41 550.96 126.49 551.645 132.901 558.902L200.856 635.812C207.268 643.069 206.583 654.149 199.326 660.561L199.326 660.561C192.069 666.972 180.989 666.287 174.577 659.031L106.623 582.12C100.211 574.864 100.896 563.784 108.153 557.372Z" stroke="#084F6A" stroke-width="9.73333" stroke-linejoin="round" stroke-miterlimit="10" fill="none" fill-rule="evenodd"/><path d="M111.208 561.2C116.305 556.697 124.087 557.178 128.59 562.274L196.61 639.259C201.113 644.356 200.632 652.138 195.536 656.641L195.536 656.641C190.439 661.144 182.657 660.663 178.154 655.566L110.133 578.582C105.63 573.485 106.111 565.703 111.208 561.2Z" fill="#FFFFFF" fill-rule="evenodd"/><path d="M111.881 578.709C106.78 573.701 106.705 565.505 111.713 560.404L175.906 495.027C180.915 489.926 189.11 489.851 194.211 494.86L194.211 494.86C199.312 499.869 199.387 508.064 194.378 513.165L130.186 578.542C125.177 583.643 116.982 583.718 111.881 578.709Z" fill="#FFFFFF" fill-rule="evenodd"/><path d="M270.301 497.975C273.644 491.656 281.477 489.243 287.796 492.586L363.073 532.411C369.392 535.754 371.805 543.586 368.461 549.906L368.461 549.905C365.118 556.225 357.286 558.637 350.967 555.294L275.69 515.47C269.371 512.127 266.958 504.294 270.301 497.975Z" fill="#FFFFFF" fill-rule="evenodd"/><path d="M348.955 552.055C343.82 547.081 343.69 538.886 348.664 533.752L407.919 472.585C412.893 467.45 421.088 467.32 426.223 472.294L426.223 472.294C431.357 477.269 431.488 485.463 426.513 490.598L367.258 551.765C362.284 556.899 354.089 557.029 348.955 552.055Z" fill="#FFFFFF" fill-rule="evenodd"/><path d="M0 0 95.2517 0.000104987" stroke="#084F6A" stroke-width="9.73333" stroke-linecap="round" stroke-linejoin="round" stroke-miterlimit="10" fill="none" fill-rule="evenodd" transform="matrix(-1 0 0 1 280.252 486)"/><path d="M0 0 89.8974 86.9204" stroke="#084F6A" stroke-width="9.73333" stroke-linecap="round" stroke-linejoin="round" stroke-miterlimit="10" fill="none" fill-rule="evenodd" transform="matrix(-1 0 0 1 523.897 376)"/></g></svg>