<svg width="1056" height="1219" xmlns="http://www.w3.org/2000/svg" xmlns:xlink="http://www.w3.org/1999/xlink" overflow="hidden"><g><rect x="0" y="0" width="1056" height="1219" fill="#FFFFFF"/><path d="M141 614.667C141 603.253 150.253 594 161.667 594L244.333 594C255.747 594 265 603.253 265 614.667L265 850.333C265 861.747 255.747 871 244.333 871L161.667 871C150.253 871 141 861.747 141 850.333Z" stroke="#084F6A" stroke-width="9.73333" stroke-linejoin="round" stroke-miterlimit="10" fill="none" fill-rule="evenodd"/><path d="M589 60.5005C589 45.3124 601.312 33 616.5 33L933.5 33C948.688 33 961 45.3124 961 60.5005L961 170.499C961 185.688 948.688 198 933.5 198L616.5 198C601.312 198 589 185.688 589 170.499Z" stroke="#084F6A" stroke-width="6" stroke-linejoin="round" stroke-miterlimit="10" fill="#FFFFFF" fill-rule="evenodd"/><text font-family="Arial,Arial_MSFontService,sans-serif" font-weight="700" font-size="46.1733" transform="translate(626.456 105)">Ready</text><text font-family="Arial,Arial_MSFontService,sans-serif" font-weight="700" font-size="46.1733" transform="translate(764.956 105)">-</text><text font-family="Arial,Arial_MSFontService,sans-serif" font-weight="700" font-size="46.1733" transform="translate(780.289 105)">to</text><text font-family="Arial,Arial_MSFontService,sans-serif" font-weight="700" font-size="46.1733" transform="translate(823.789 105)">-</text><text font-family="Arial,Arial_MSFontService,sans-serif" font-weight="700" font-size="46.1733" transform="translate(839.123 105)">Use</text><text font-family="Arial,Arial_MSFontService,sans-serif" font-weight="700" font-size="46.1733" transform="translate(675.043 160)">Materials</text><path d="M95 60.5005C95 45.3124 107.312 33 122.5 33L439.499 33C454.688 33 467 45.3124 467 60.5005L467 170.499C467 185.688 454.688 198 439.499 198L122.5 198C107.312 198 95 185.688 95 170.499Z" stroke="#084F6A" stroke-width="6" stroke-linejoin="round" stroke-miterlimit="10" fill="#FFFFFF" fill-rule="evenodd"/><text font-family="Arial,Arial_MSFontService,sans-serif" font-weight="700" font-size="46.1733" transform="translate(170.627 105)">Pedagogy</text><text font-family="Arial,Arial_MSFontService,sans-serif" font-weight="700" font-size="46.1733" transform="translate(189.874 160)">Training</text><path d="M573 331.167C573 323.895 578.895 318 586.167 318L963.833 318C971.105 318 977 323.895 977 331.167L977 383.833C977 391.105 971.105 397 963.833 397L586.167 397C578.895 397 573 391.105 573 383.833Z" fill="#7030A0" fill-rule="evenodd"/><text fill="#FFFFFF" font-family="Arial,Arial_MSFontService,sans-serif" font-weight="700" font-size="37.3333" transform="translate(672.289 371)">Slide decks</text><path d="M573 513C573 505.82 578.82 500 586 500L964 500C971.18 500 977 505.82 977 513L977 565C977 572.18 971.18 578 964 578L586 578C578.82 578 573 572.18 573 565Z" fill="#0F9ED5" fill-rule="evenodd"/><text fill="#FFFFFF" font-family="Arial,Arial_MSFontService,sans-serif" font-weight="700" font-size="37.3333" transform="translate(633.789 553)">Presenter notes</text><path d="M573 422C573 414.82 578.82 409 586 409L964 409C971.18 409 977 414.82 977 422L977 474C977 481.18 971.18 487 964 487L586 487C578.82 487 573 481.18 573 474Z" fill="#CC0066" fill-rule="evenodd"/><text fill="#FFFFFF" font-family="Arial,Arial_MSFontService,sans-serif" font-weight="700" font-size="37.3333" transform="translate(603.623 462)">Hands</text><text fill="#FFFFFF" font-family="Arial,Arial_MSFontService,sans-serif" font-weight="700" font-size="37.3333" transform="translate(717.956 462)">-</text><text fill="#FFFFFF" font-family="Arial,Arial_MSFontService,sans-serif" font-weight="700" font-size="37.3333" transform="translate(730.456 462)">on</text><text fill="#FFFFFF" font-family="Arial,Arial_MSFontService,sans-serif" font-weight="700" font-size="37.3333" transform="translate(786.456 462)">activities</text><rect x="64" y="582" width="225" height="66" fill="#FFFFFF"/><path d="M573 604C573 596.82 578.82 591 586 591L964 591C971.18 591 977 596.82 977 604L977 656C977 663.18 971.18 669 964 669L586 669C578.82 669 573 663.18 573 656Z" fill="#0066FF" fill-rule="evenodd"/><text fill="#FFFFFF" font-family="Arial,Arial_MSFontService,sans-serif" font-weight="700" font-size="37.3333" transform="translate(622.373 644)">Accessibility tips</text><path d="M494.93 103.416 517.416 103.416 517.416 80.9295 538.584 80.9295 538.584 103.416 561.07 103.416 561.07 124.584 538.584 124.584 538.584 147.07 517.416 147.07 517.416 124.584 494.93 124.584Z" stroke="#084F6A" stroke-width="6" stroke-miterlimit="8" fill="#E8E8E8" fill-rule="evenodd"/><g><g><g><path d="M600.25 425.463 571.667 425.463 571.667 132.484 600.25 132.484C604.197 132.484 607.396 129.285 607.396 125.338 607.396 121.391 604.197 118.192 600.25 118.192L350.146 118.192 350.146 89.6087C350.146 85.6621 346.947 82.4629 343 82.4629 339.053 82.4629 335.854 85.6621 335.854 89.6087L335.854 118.192 85.75 118.192C81.8034 118.192 78.6042 121.391 78.6042 125.338 78.6042 129.285 81.8034 132.484 85.75 132.484L114.333 132.484 114.333 425.463 85.75 425.463C81.8034 425.463 78.6042 428.662 78.6042 432.609 78.6042 436.555 81.8034 439.755 85.75 439.755L325.75 439.755 198.604 566.9C195.862 569.739 195.941 574.263 198.78 577.005 201.549 579.679 205.939 579.679 208.708 577.005L335.733 449.98C335.797 449.916 335.854 449.937 335.854 450.03L335.854 596.963C335.854 600.91 339.053 604.109 343 604.109 346.947 604.109 350.146 600.91 350.146 596.963L350.146 450.03C350.146 449.937 350.203 449.909 350.267 449.98L477.292 577.005C480.131 579.746 484.654 579.668 487.396 576.829 490.071 574.06 490.071 569.669 487.396 566.9L360.25 439.755 600.25 439.755C604.197 439.755 607.396 436.555 607.396 432.609 607.396 428.662 604.197 425.463 600.25 425.463ZM128.625 425.463 128.625 132.484 557.375 132.484 557.375 425.463Z" transform="matrix(1 0 0 1.37026 432 114)"/></g></g></g><path d="M202 688 203.226 871.403" stroke="#084F6A" stroke-width="10" stroke-linecap="round" stroke-linejoin="round" stroke-miterlimit="10" fill="none" fill-rule="evenodd"/><path d="M265 518 265 671.7" stroke="#084F6A" stroke-width="9.73333" stroke-linecap="round" stroke-linejoin="round" stroke-miterlimit="10" fill="none" fill-rule="evenodd"/><path d="M148 398.5C148 370.61 170.833 348 199 348 227.167 348 250 370.61 250 398.5 250 426.39 227.167 449 199 449 170.833 449 148 426.39 148 398.5Z" stroke="#084F6A" stroke-width="9.73333" stroke-linejoin="round" stroke-miterlimit="10" fill="none" fill-rule="evenodd"/><path d="M312.508 534.612C305.602 527.823 305.507 516.722 312.295 509.817L371.976 449.105C378.764 442.199 389.865 442.104 396.771 448.893L396.771 448.893C403.676 455.681 403.771 466.782 396.983 473.687L337.302 534.399C330.514 541.305 319.413 541.4 312.508 534.612Z" stroke="#084F6A" stroke-width="9.73333" stroke-linejoin="round" stroke-miterlimit="10" fill="none" fill-rule="evenodd"/><path d="M70.4965 566.614C63.591 559.826 63.4959 548.725 70.2841 541.819L135.979 474.989C142.768 468.083 153.869 467.988 160.774 474.777L160.774 474.777C167.68 481.565 167.775 492.666 160.987 499.571L95.2912 566.402C88.503 573.307 77.402 573.402 70.4965 566.614Z" stroke="#084F6A" stroke-width="9.73333" stroke-linejoin="round" stroke-miterlimit="10" fill="none" fill-rule="evenodd"/><path d="M229.642 478.925C234.157 470.358 244.761 467.073 253.327 471.588L328.643 511.278C337.21 515.792 340.495 526.396 335.98 534.963L335.98 534.963C331.466 543.529 320.862 546.814 312.295 542.3L236.979 502.61C228.413 498.095 225.128 487.491 229.642 478.925Z" stroke="#084F6A" stroke-width="9.73333" stroke-linejoin="round" stroke-miterlimit="10" fill="none" fill-rule="evenodd"/><path d="M137 491.075C137 481.645 144.645 474 154.075 474L243.925 474C253.355 474 261 481.645 261 491.075L261 546.925C261 556.355 253.355 564 243.925 564L154.075 564C144.645 564 137 556.355 137 546.925Z" fill="#FFFFFF" fill-rule="evenodd"/><path d="M148.424 513.67C152.639 509.573 159.376 509.669 163.473 513.884L206.077 557.718C210.174 561.933 210.078 568.671 205.863 572.768L170.679 606.965C166.464 611.062 159.726 610.966 155.629 606.751L113.025 562.917C108.928 558.702 109.024 551.964 113.239 547.867Z" stroke="#084F6A" stroke-width="9.73333" stroke-linejoin="round" stroke-miterlimit="10" fill="none" fill-rule="evenodd"/><path d="M71.5969 540.982C78.8534 534.57 89.9337 535.255 96.3453 542.512L164.3 619.422C170.711 626.679 170.026 637.759 162.77 644.171L162.77 644.17C155.513 650.582 144.433 649.897 138.021 642.641L70.0669 565.73C63.6554 558.474 64.3404 547.393 71.597 540.982Z" stroke="#084F6A" stroke-width="9.73333" stroke-linejoin="round" stroke-miterlimit="10" fill="none" fill-rule="evenodd"/><path d="M74.6519 544.81C79.7485 540.307 87.5306 540.788 92.0337 545.884L160.054 622.869C164.557 627.966 164.076 635.748 158.979 640.251L158.979 640.251C153.883 644.754 146.101 644.273 141.598 639.176L73.5774 562.191C69.0743 557.095 69.5554 549.313 74.6519 544.81Z" fill="#FFFFFF" fill-rule="evenodd"/><path d="M75.3246 562.319C70.2236 557.31 70.1486 549.115 75.1572 544.014L139.35 478.637C144.358 473.536 152.554 473.461 157.655 478.47L157.655 478.47C162.756 483.478 162.831 491.674 157.822 496.775L93.6296 562.152C88.621 567.253 80.4256 567.328 75.3246 562.319Z" fill="#FFFFFF" fill-rule="evenodd"/><path d="M233.745 481.585C237.088 475.266 244.921 472.853 251.24 476.196L326.517 516.02C332.836 519.363 335.248 527.196 331.905 533.515L331.905 533.515C328.562 539.834 320.729 542.247 314.41 538.904L239.134 499.08C232.815 495.737 230.402 487.904 233.745 481.585Z" fill="#FFFFFF" fill-rule="evenodd"/><path d="M312.399 535.665C307.264 530.691 307.134 522.496 312.108 517.362L371.363 456.195C376.337 451.06 384.532 450.93 389.667 455.904L389.667 455.904C394.801 460.878 394.931 469.073 389.957 474.208L330.702 535.375C325.728 540.509 317.533 540.639 312.399 535.665Z" fill="#FFFFFF" fill-rule="evenodd"/><path d="M0 0 95.2517 0.000104987" stroke="#084F6A" stroke-width="9.73333" stroke-linecap="round" stroke-linejoin="round" stroke-miterlimit="10" fill="none" fill-rule="evenodd" transform="matrix(-1 0 0 1 243.252 470)"/><path d="M0 0 89.8974 86.9204" stroke="#084F6A" stroke-width="9.73333" stroke-linecap="round" stroke-linejoin="round" stroke-miterlimit="10" fill="none" fill-rule="evenodd" transform="matrix(-1 0 0 1 486.897 360)"/></g></svg>