<svg width="1280" height="720" xmlns="http://www.w3.org/2000/svg" xmlns:xlink="http://www.w3.org/1999/xlink" overflow="hidden"><defs><clipPath id="clip0"><rect x="0" y="0" width="1280" height="720"/></clipPath><clipPath id="clip1"><path d="M449.593 455.3 613.138 419.946 648.493 583.491 484.948 618.845Z" fill-rule="evenodd" clip-rule="evenodd"/></clipPath><clipPath id="clip2"><path d="M449.593 455.3 613.138 419.946 648.493 583.491 484.948 618.845Z" fill-rule="evenodd" clip-rule="evenodd"/></clipPath><clipPath id="clip3"><path d="M449.593 455.3 613.138 419.946 648.493 583.491 484.948 618.845Z" fill-rule="evenodd" clip-rule="evenodd"/></clipPath></defs><g clip-path="url(#clip0)"><rect x="0" y="0" width="1280" height="720" fill="#FFFFFF"/><path d="M1083.46 446.301 574.857 49.2593 608.755 12.1916Z" fill="#E3EEC9" fill-rule="evenodd"/><path d="M1084.17 423.033 630.416 8.13458 667.226-26.0423Z" fill="#E3EEC9" fill-rule="evenodd"/><path d="M1095.31 469.746C1104.87 476.894 1106.83 490.442 1099.68 500.007L1098.14 502.076C1090.99 511.641 1077.44 513.601 1067.88 506.454L512.029 91.0915C502.464 83.9441 500.504 70.3959 507.652 60.8309L509.198 58.7612C516.346 49.1962 529.894 47.2363 539.459 54.3838Z" fill="#E3EEC9" fill-rule="evenodd"/><path d="M0 50.2301 643.269 0 643.269 50.2301Z" fill="#E3EEC9" fill-rule="evenodd" transform="matrix(0.737957 -0.674848 -0.674848 -0.737957 1119.76 483.368)"/><path d="M0 50.2301 612.793 0 612.793 50.2301Z" fill="#E3EEC9" fill-rule="evenodd" transform="matrix(0.680407 -0.732835 -0.732835 -0.680407 1121.96 457.21)"/><path d="M1305.05 315.216C1315.04 308.558 1328.53 311.255 1335.19 321.242L1335.19 321.242C1341.85 331.228 1339.15 344.721 1329.16 351.379L1095.26 507.339C1085.27 513.998 1071.78 511.3 1065.12 501.314L1065.12 501.314C1058.46 491.328 1061.16 477.835 1071.14 471.176Z" fill="#E3EEC9" fill-rule="evenodd"/><path d="M618.116 113.602 590.686 150.309 489.742 74.8776 517.172 38.1699Z" fill="#E3EEC9" fill-rule="evenodd"/><g><g><g><path d="M542.125 187.688 224.875 187.688C215.153 187.717 207.279 195.591 207.25 205.312L207.25 416.879C207.281 426.6 215.154 434.472 224.875 434.504L352.656 434.504 352.656 478.566 304.188 478.566 304.188 487.379 462.812 487.379 462.812 478.566 414.344 478.566 414.344 434.504 542.125 434.504C551.846 434.472 559.719 426.6 559.75 416.879L559.75 205.312C559.721 195.591 551.847 187.717 542.125 187.688ZM405.531 478.584 361.469 478.584 361.469 434.521 405.531 434.521ZM550.938 416.896C550.938 421.763 546.992 425.709 542.125 425.709L224.875 425.709C220.008 425.709 216.062 421.763 216.062 416.896L216.062 205.312C216.062 200.445 220.008 196.5 224.875 196.5L542.125 196.5C546.992 196.5 550.938 200.445 550.938 205.312Z" fill="#009145"/><path d="M238.094 209.719 229.281 209.719 229.281 412.468 537.719 412.468 537.719 209.719 238.094 209.719ZM528.906 403.655 238.094 403.655 238.094 218.531 528.906 218.531Z" fill="#009145"/></g></g></g><g><g><g><path d="M66.9375 18.5938 44.625 100.406 52.0625 100.406 74.375 18.5938ZM29.5176 23.8232 4.41602 57.2918 2.78906 59.5 4.41602 61.7082 29.5176 95.1769 35.5605 90.7606 12.0859 59.5 35.5605 28.2393ZM89.4824 23.8232 83.4395 28.2393 106.914 59.5 83.4395 90.7606 89.4824 95.1769 114.584 61.7082 116.211 59.5 114.584 57.2918Z" fill="#009145" transform="matrix(1 0 0 1.0084 319 253)"/></g></g></g><path d="M472 536 565.32 584.338" stroke="#009145" stroke-width="8" stroke-linecap="round" stroke-miterlimit="8" fill="none" fill-rule="evenodd"/><path d="M631 503 693.29 542.005" stroke="#009145" stroke-width="8" stroke-linecap="round" stroke-miterlimit="8" fill="none" fill-rule="evenodd"/><g clip-path="url(#clip1)"><g clip-path="url(#clip2)"><g clip-path="url(#clip3)"><path d="M625.813 498.525 624.183 498.878C618.515 482.433 601.34 472.446 583.917 476.212 567.726 479.712 556.652 493.939 556.459 509.827L547.78 507.439C546.904 507.201 545.959 507.405 545.26 507.984L538.342 513.743C531.609 499.353 515.642 490.971 499.451 494.472 482.023 498.239 470.513 514.433 472.137 531.746L470.507 532.099C468.248 532.587 466.814 534.812 467.302 537.071 467.789 539.325 470.015 540.759 472.274 540.271L473.904 539.918C479.577 556.362 496.747 566.35 514.175 562.583 532.983 558.517 544.938 539.975 540.871 521.162 540.734 520.528 540.539 519.923 540.367 519.302L547.703 513.196 556.906 515.727C557.005 516.358 557.078 516.995 557.215 517.629 561.281 536.437 579.828 548.39 598.636 544.325 616.059 540.558 627.57 524.369 625.945 507.051L627.575 506.698C629.834 506.21 631.268 503.985 630.78 501.726 630.291 499.467 628.066 498.033 625.807 498.521ZM512.997 557.135C497.22 560.545 481.613 550.487 478.202 534.71 474.792 518.933 484.851 503.325 500.628 499.915 516.405 496.504 532.012 506.563 535.423 522.34 538.833 538.117 528.774 553.724 512.997 557.135ZM597.458 538.876C581.681 542.287 566.074 532.228 562.663 516.451 559.253 500.674 569.313 485.072 585.09 481.661 600.867 478.251 616.474 488.31 619.884 504.081 623.293 519.853 613.235 535.466 597.458 538.876Z" fill="#009145"/></g></g></g><path d="M555.639 579.426C568.808 582.491 576.004 594.075 571.919 605.631" stroke="#009145" stroke-width="8" stroke-linecap="round" stroke-miterlimit="8" fill="none" fill-rule="evenodd"/><path d="M685.275 536.907C698.076 541.258 704.092 553.496 698.885 564.592" stroke="#009145" stroke-width="8" stroke-linecap="round" stroke-miterlimit="8" fill="none" fill-rule="evenodd"/></g></svg>