<svg width="1280" height="720" xmlns="http://www.w3.org/2000/svg" xmlns:xlink="http://www.w3.org/1999/xlink" overflow="hidden"><defs><clipPath id="clip0"><rect x="0" y="0" width="1280" height="720"/></clipPath></defs><g clip-path="url(#clip0)"><rect x="0" y="0" width="1280" height="720" fill="#FFFFFF"/><path d="M1083.46 446.301 574.857 49.2593 608.755 12.1916Z" fill="#E3EEC9" fill-rule="evenodd"/><path d="M1084.17 423.033 630.416 8.13458 667.226-26.0423Z" fill="#E3EEC9" fill-rule="evenodd"/><path d="M1095.31 469.746C1104.87 476.894 1106.83 490.442 1099.68 500.007L1098.14 502.076C1090.99 511.641 1077.44 513.601 1067.88 506.454L512.029 91.0915C502.464 83.9441 500.504 70.3959 507.652 60.8309L509.198 58.7612C516.346 49.1962 529.894 47.2363 539.459 54.3838Z" fill="#E3EEC9" fill-rule="evenodd"/><path d="M0 50.2301 643.269 0 643.269 50.2301Z" fill="#E3EEC9" fill-rule="evenodd" transform="matrix(0.737957 -0.674848 -0.674848 -0.737957 1119.76 483.368)"/><path d="M0 50.2301 612.793 0 612.793 50.2301Z" fill="#E3EEC9" fill-rule="evenodd" transform="matrix(0.680407 -0.732835 -0.732835 -0.680407 1121.96 457.21)"/><path d="M1305.05 315.216C1315.04 308.558 1328.53 311.255 1335.19 321.242L1335.19 321.242C1341.85 331.228 1339.15 344.721 1329.16 351.379L1095.26 507.339C1085.27 513.998 1071.78 511.3 1065.12 501.314L1065.12 501.314C1058.46 491.328 1061.16 477.835 1071.14 471.176Z" fill="#E3EEC9" fill-rule="evenodd"/><path d="M618.116 113.602 590.686 150.309 489.742 74.8776 517.172 38.1699Z" fill="#E3EEC9" fill-rule="evenodd"/><path d="M335 255.012C335 239.541 347.541 227 363.012 227L516.988 227C532.459 227 545 239.541 545 255.012L545 463.988C545 479.459 532.459 492 516.988 492L363.012 492C347.541 492 335 479.459 335 463.988Z" stroke="#009145" stroke-width="8" stroke-miterlimit="8" fill="none" fill-rule="evenodd"/><path d="M476 234.603C476 230.404 479.404 227 483.603 227L537.397 227C541.596 227 545 230.404 545 234.603L545 276.397C545 280.596 541.596 284 537.397 284L483.603 284C479.404 284 476 280.596 476 276.397Z" stroke="#009145" stroke-width="8" stroke-miterlimit="8" fill="none" fill-rule="evenodd"/><path d="M505.151 171.669 607.85 254.83 570.065 301.492 467.367 218.331Z" fill="#FFFFFF" fill-rule="evenodd"/><path d="M392 292 441.247 292" stroke="#009145" stroke-width="8" stroke-linecap="round" stroke-miterlimit="8" fill="none" fill-rule="evenodd"/><path d="M246 357.5C246 256.156 329.275 174 432 174 534.725 174 618 256.156 618 357.5 618 458.844 534.725 541 432 541 329.275 541 246 458.844 246 357.5Z" stroke="#009145" stroke-width="8" stroke-miterlimit="8" fill="none" fill-rule="evenodd"/><path d="M228.227 314.847 296.312 324.244 286.174 397.696 218.09 388.299Z" stroke="#FFFFFF" stroke-width="2" stroke-miterlimit="8" fill="#FFFFFF" fill-rule="evenodd"/><path d="M0 0 25.5477 41.4723" stroke="#009145" stroke-width="8" stroke-linecap="round" stroke-miterlimit="8" fill="none" fill-rule="evenodd" transform="matrix(-1 0 0 1 249.548 393)"/><path d="M250 393 289.688 417.252" stroke="#009145" stroke-width="8" stroke-linecap="round" stroke-miterlimit="8" fill="none" fill-rule="evenodd"/><path d="M392 319 508.209 319" stroke="#009145" stroke-width="8" stroke-linecap="round" stroke-miterlimit="8" fill="none" fill-rule="evenodd"/><path d="M476 226 544.618 284.207" stroke="#009145" stroke-width="8" stroke-miterlimit="8" fill="none" fill-rule="evenodd"/><path d="M462 227 477.985 227" stroke="#009145" stroke-width="8" stroke-miterlimit="8" fill="none" fill-rule="evenodd"/><path d="M392 362 441.247 362" stroke="#009145" stroke-width="8" stroke-linecap="round" stroke-miterlimit="8" fill="none" fill-rule="evenodd"/><path d="M392 389 508.209 389" stroke="#009145" stroke-width="8" stroke-linecap="round" stroke-miterlimit="8" fill="none" fill-rule="evenodd"/><path d="M392 432 441.247 432" stroke="#009145" stroke-width="8" stroke-linecap="round" stroke-miterlimit="8" fill="none" fill-rule="evenodd"/><path d="M392 459 508.209 459" stroke="#009145" stroke-width="8" stroke-linecap="round" stroke-miterlimit="8" fill="none" fill-rule="evenodd"/><text fill="#009145" font-family="Aptos,Aptos_MSFontService,sans-serif" font-weight="700" font-size="53.3333" transform="translate(348.742 318)">1</text><text fill="#009145" font-family="Aptos,Aptos_MSFontService,sans-serif" font-weight="700" font-size="53.3333" transform="translate(348.742 390)">2</text><text fill="#009145" font-family="Aptos,Aptos_MSFontService,sans-serif" font-weight="700" font-size="53.3333" transform="translate(348.742 462)">3</text></g></svg>