<?xml version="1.0" encoding="UTF-8" standalone="no"?>
<svg
   width="492"
   height="492"
   overflow="hidden"
   version="1.1"
   id="svg5"
   sodipodi:docname="advisory_board.svg"
   inkscape:version="1.4.3 (0d15f75, 2025-12-25)"
   xmlns:inkscape="http://www.inkscape.org/namespaces/inkscape"
   xmlns:sodipodi="http://sodipodi.sourceforge.net/DTD/sodipodi-0.dtd"
   xmlns="http://www.w3.org/2000/svg"
   xmlns:svg="http://www.w3.org/2000/svg">
  <defs
     id="defs5" />
  <sodipodi:namedview
     id="namedview5"
     pagecolor="#ffffff"
     bordercolor="#000000"
     borderopacity="0.25"
     inkscape:showpageshadow="2"
     inkscape:pageopacity="0.0"
     inkscape:pagecheckerboard="0"
     inkscape:deskcolor="#d1d1d1"
     inkscape:export-bgcolor="#ffffff00"
     inkscape:zoom="0.6875"
     inkscape:cx="262.54545"
     inkscape:cy="256.72727"
     inkscape:window-width="1914"
     inkscape:window-height="1144"
     inkscape:window-x="297"
     inkscape:window-y="109"
     inkscape:window-maximized="0"
     inkscape:current-layer="svg5" />
  <g
     id="g5"
     transform="translate(-394,-114)">
    <path
       d="M 394,270.043 C 394,183.863 463.863,114 550.043,114 H 729.957 C 816.137,114 886,183.863 886,270.043 V 449.957 C 886,536.137 816.137,606 729.957,606 H 550.043 C 463.863,606 394,536.137 394,449.957 Z"
       fill="#fceebd"
       fill-rule="evenodd"
       id="path1" />
    <g
       id="g4">
      <g
         id="g3">
        <g
           id="g2">
          <path
             d="m 803.127,419.267 c 4.604,-1.279 7.98,-5.213 8.548,-9.958 l 9.359,-77.986 c 0.779,-6.464 -3.83,-12.335 -10.295,-13.114 -0.242,-0.029 -0.485,-0.05 -0.73,-0.065 l -43.336,-2.551 c -6.182,-0.356 -11.59,4.124 -12.391,10.265 l -2.685,20.821 -6.619,-10.135 1.508,-11.69 c 1.279,-9.803 9.629,-17.136 19.514,-17.14 0.394,0 0.787,0 1.181,0.035 l 18.719,1.099 2.705,-16.605 c 1.035,-6.441 -3.347,-12.501 -9.788,-13.537 -0.354,-0.056 -0.71,-0.097 -1.067,-0.122 l -35.237,-2.362 c -6.102,-0.397 -11.498,3.928 -12.439,9.97 l -3.449,22.203 -6.434,-9.844 2.087,-13.537 c 1.436,-9.606 9.707,-16.701 19.42,-16.659 0.433,0 0.874,0 1.315,0.047 l 7.773,0.516 1.224,-11.025 c 0.712,-6.485 -3.968,-12.319 -10.454,-13.031 -0.12,-0.013 -0.241,-0.024 -0.362,-0.034 l -27.508,-2.114 c -6.371,-0.492 -11.977,4.171 -12.655,10.525 l -1.783,16.954 c -7.118,-5.648 -15.941,-8.715 -25.027,-8.701 h -3.438 v -27.563 c -0.003,-2.851 -1.136,-5.585 -3.15,-7.603 -1.446,-1.214 -3.062,-2.21 -4.795,-2.957 -14.513,-6.766 -31.26,-6.838 -45.829,-0.197 -2.022,0.806 -3.934,1.864 -5.69,3.15 -2.014,2.018 -3.147,4.752 -3.15,7.603 v 27.563 h -3.788 c -8.531,-0.01 -16.846,2.691 -23.743,7.713 l -1.669,-15.962 c -0.677,-6.344 -6.27,-11.004 -12.632,-10.525 l -27.507,2.114 c -6.504,0.511 -11.362,6.198 -10.851,12.702 0.01,0.121 0.021,0.242 0.035,0.363 l 1.224,11.025 7.773,-0.516 c 0.441,-0.032 0.882,-0.047 1.315,-0.047 9.713,-0.044 17.983,7.053 19.416,16.659 l 1.831,11.836 -6.434,9.844 -3.15,-20.499 c -0.941,-6.041 -6.337,-10.366 -12.439,-9.969 l -35.236,2.362 c -6.509,0.446 -11.424,6.084 -10.978,12.592 0.024,0.358 0.065,0.714 0.122,1.067 l 2.705,16.605 18.719,-1.099 c 0.394,-0.023 0.787,-0.035 1.181,-0.035 9.873,0.02 18.205,7.35 19.483,17.14 l 1.283,9.966 -6.654,10.139 -2.465,-19.105 c -0.801,-6.141 -6.209,-10.621 -12.391,-10.265 l -43.332,2.551 c -6.5,0.376 -11.466,5.949 -11.09,12.449 0.014,0.244 0.035,0.488 0.065,0.73 l 9.363,77.986 c 0.568,4.747 3.946,8.68 8.552,9.958 l 16.364,4.548 v 16.538 h -13.749 c -7.591,0.013 -13.743,6.162 -13.758,13.753 v 2.709 c -2.877,3.262 -2.564,8.239 0.698,11.115 3.261,2.877 8.238,2.565 11.115,-0.697 2.625,-2.977 2.625,-7.441 0,-10.418 v -2.709 c 0,-1.087 0.881,-1.968 1.968,-1.968 h 13.734 v 4.673 c -2.883,3.257 -2.58,8.234 0.677,11.117 3.256,2.883 8.233,2.58 11.116,-0.677 2.638,-2.98 2.638,-7.46 0,-10.44 v -4.673 H 518.8 c 1.087,0 1.969,0.881 1.969,1.968 v 2.709 c -2.877,3.262 -2.565,8.239 0.697,11.115 3.262,2.877 8.238,2.565 11.115,-0.697 2.625,-2.977 2.625,-7.441 0,-10.418 v -2.709 c -0.013,-7.592 -6.165,-13.744 -13.758,-13.757 h -13.781 v -11.155 c 2.444,1.599 5.124,2.804 7.942,3.571 l 25.342,6.772 c 12.576,3.358 25.286,6.079 38.131,8.163 v 36.571 c 0.017,5.402 3.695,10.103 8.934,11.419 l 5.926,1.481 c 31.673,6.331 64.311,6.076 95.882,-0.748 l 2.362,-0.63 c 5.15,-1.379 8.738,-6.037 8.757,-11.368 v -36.166 c 13.954,-2.12 27.783,-4.992 41.427,-8.603 l 25.928,-6.899 c 3.352,-0.895 6.505,-2.413 9.297,-4.473 v 12.065 h -13.758 c -7.593,0.013 -13.745,6.165 -13.758,13.757 v 2.709 c -2.883,3.257 -2.579,8.234 0.677,11.117 3.256,2.883 8.233,2.58 11.116,-0.677 2.638,-2.98 2.638,-7.46 0,-10.44 v -2.709 c 0,-1.087 0.882,-1.968 1.969,-1.968 h 13.758 v 4.673 c -2.883,3.257 -2.581,8.234 0.676,11.117 3.256,2.883 8.233,2.58 11.116,-0.677 2.639,-2.98 2.639,-7.46 0,-10.44 v -4.673 h 13.758 c 1.087,0 1.969,0.881 1.969,1.968 v 2.709 c -2.877,3.262 -2.565,8.239 0.697,11.115 3.262,2.877 8.238,2.565 11.115,-0.697 2.625,-2.977 2.625,-7.441 0,-10.418 v -2.709 c -0.013,-7.602 -6.179,-13.757 -13.781,-13.757 h -13.762 v -16.538 z m -67.426,5.194 c -31.464,8.367 -63.884,12.603 -96.441,12.6 -32.704,-0.003 -65.267,-4.28 -96.863,-12.722 l -25.342,-6.773 c -5.819,-1.268 -9.509,-7.013 -8.241,-12.833 0.288,-1.323 0.822,-2.579 1.575,-3.704 l 74.179,-113.731 c 4.562,-6.398 11.963,-10.163 19.821,-10.084 h 69.867 c 7.856,-0.079 15.256,3.682 19.822,10.076 l 74.229,113.723 c 3.315,4.946 1.992,11.643 -2.955,14.957 -1.129,0.757 -2.391,1.293 -3.719,1.581 z"
             fill="#00883a"
             id="path2" />
        </g>
      </g>
    </g>
  </g>
</svg>
