<?xml version="1.0" encoding="UTF-8" standalone="no"?>
<svg
   width="492"
   height="492"
   overflow="hidden"
   version="1.1"
   id="svg5"
   sodipodi:docname="award.svg"
   inkscape:version="1.4.3 (0d15f75, 2025-12-25)"
   xmlns:inkscape="http://www.inkscape.org/namespaces/inkscape"
   xmlns:sodipodi="http://sodipodi.sourceforge.net/DTD/sodipodi-0.dtd"
   xmlns="http://www.w3.org/2000/svg"
   xmlns:svg="http://www.w3.org/2000/svg">
  <defs
     id="defs5" />
  <sodipodi:namedview
     id="namedview5"
     pagecolor="#ffffff"
     bordercolor="#000000"
     borderopacity="0.25"
     inkscape:showpageshadow="2"
     inkscape:pageopacity="0.0"
     inkscape:pagecheckerboard="0"
     inkscape:deskcolor="#d1d1d1"
     inkscape:zoom="0.6875"
     inkscape:cx="245.81818"
     inkscape:cy="246.54545"
     inkscape:window-width="2108"
     inkscape:window-height="1236"
     inkscape:window-x="0"
     inkscape:window-y="25"
     inkscape:window-maximized="0"
     inkscape:current-layer="g5" />
  <g
     id="g5"
     transform="translate(-394,-114)">
    <path
       d="M 394,270.043 C 394,183.863 463.863,114 550.043,114 H 729.957 C 816.137,114 886,183.863 886,270.043 V 449.957 C 886,536.137 816.137,606 729.957,606 H 550.043 C 463.863,606 394,536.137 394,449.957 Z"
       fill="#fceebd"
       fill-rule="evenodd"
       id="path1" />
    <g
       id="g4">
      <g
         id="g3">
        <g
           id="g2">
          <path
             d="m 738.044,354.094 c -13.781,14.175 -26.775,23.231 -55.125,26.381 7.481,-7.481 16.143,-14.962 23.625,-24.019 3.15,-3.543 9.056,-11.418 9.056,-11.812 6.694,-11.025 10.631,-23.625 10.631,-37.407 V 256.05 h 27.563 v 59.85 c 0.394,0.788 1.181,20.475 -15.75,38.194 z m -195.694,0 C 525.025,336.375 525.812,316.688 525.812,315.9 v -60.244 h 27.563 v 51.188 c 0,13.781 3.937,26.381 10.631,37.406 0,0.394 5.906,8.663 9.056,11.812 7.876,9.057 16.144,16.538 23.626,24.019 -27.563,-3.15 -40.951,-12.206 -54.338,-25.987 z M 777.812,314.719 V 232.031 H 726.625 V 204.469 H 640 553.375 v 27.562 h -51.187 v 82.294 c 0,3.938 0,31.106 22.443,55.125 21.656,22.838 48.038,34.65 94.106,35.438 3.544,5.906 5.513,12.599 5.513,19.687 v 51.188 h -19.688 c -8.662,0 -15.75,7.087 -15.75,15.75 h -19.687 c -8.662,0 -15.75,7.087 -15.75,15.75 v 7.875 h 173.25 v -7.875 c 0,-8.663 -7.088,-15.75 -15.75,-15.75 h -19.687 c 0,-8.663 -7.088,-15.75 -15.75,-15.75 H 655.75 v -50.794 c 0,-7.088 1.969,-13.781 5.513,-19.688 46.068,-0.787 72.45,-12.993 94.106,-35.437 22.443,-23.625 22.443,-51.188 22.443,-55.125 z"
             fill="#00883a"
             id="path2" />
        </g>
      </g>
    </g>
  </g>
</svg>
