<?xml version="1.0" encoding="UTF-8" standalone="no"?>
<svg
   width="492"
   height="491.99899"
   overflow="hidden"
   version="1.1"
   id="svg14"
   sodipodi:docname="conference.svg"
   inkscape:version="1.4.3 (0d15f75, 2025-12-25)"
   xmlns:inkscape="http://www.inkscape.org/namespaces/inkscape"
   xmlns:sodipodi="http://sodipodi.sourceforge.net/DTD/sodipodi-0.dtd"
   xmlns="http://www.w3.org/2000/svg"
   xmlns:svg="http://www.w3.org/2000/svg">
  <defs
     id="defs14" />
  <sodipodi:namedview
     id="namedview14"
     pagecolor="#ffffff"
     bordercolor="#000000"
     borderopacity="0.25"
     inkscape:showpageshadow="2"
     inkscape:pageopacity="0.0"
     inkscape:pagecheckerboard="0"
     inkscape:deskcolor="#d1d1d1"
     inkscape:zoom="0.6875"
     inkscape:cx="245.81818"
     inkscape:cy="246.54545"
     inkscape:window-width="1972"
     inkscape:window-height="1198"
     inkscape:window-x="56"
     inkscape:window-y="57"
     inkscape:window-maximized="0"
     inkscape:current-layer="svg14" />
  <g
     id="g14"
     transform="translate(-394,-114)">
    <path
       d="M 394,270.043 C 394,183.863 463.863,114 550.043,114 H 729.957 C 816.137,114 886,183.863 886,270.043 v 179.914 c 0,86.18 -69.863,156.042 -156.043,156.042 H 550.043 C 463.863,605.999 394,536.137 394,449.957 Z"
       fill="#fceebd"
       fill-rule="evenodd"
       id="path1" />
    <g
       id="g6">
      <g
         id="g5">
        <g
           id="g4">
          <path
             d="m 130,52.8125 c 11.917,0 21.667,-9.75 21.667,-21.6667 0,-11.9166 -9.75,-21.66663 -21.667,-21.66663 -11.917,0 -21.667,9.75003 -21.667,21.66663 0,11.9167 9.75,21.6667 21.667,21.6667"
             fill="#00883a"
             transform="matrix(1,0,0,1.00385,510,135)"
             id="path2" />
          <path
             d="M 184.167,134.062 195,101.562 H 65 l 10.8333,32.5 h 16.25 L 102.917,239.688 H 86.6667 v 10.833 h 86.6663 v -10.833 h -16.25 l 10.834,-105.626 z"
             fill="#00883a"
             transform="matrix(1,0,0,1.00385,510,135)"
             id="path3" />
          <path
             d="m 173.875,78.2708 c -0.542,-2.1666 -1.625,-4.3333 -3.25,-5.9583 -6.5,-5.4167 -14.083,-9.2083 -22.75,-11.9167 -5.958,-1.0833 -11.917,-2.1666 -17.875,-2.1666 -5.958,0 -11.917,1.0833 -17.875,2.7083 -8.667,2.1667 -16.25,6.5 -22.75,11.9167 -1.625,1.625 -2.7083,3.7916 -3.25,5.9583 l -2.7083,11.9167 h 93.4373 z"
             fill="#00883a"
             transform="matrix(1,0,0,1.00385,510,135)"
             id="path4" />
        </g>
      </g>
    </g>
    <g
       id="g13">
      <g
         id="g12">
        <g
           id="g11">
          <path
             d="m 104.156,97.2125 c 0,15.6885 -12.7177,28.4065 -28.406,28.4065 -15.6883,0 -28.4062,-12.718 -28.4062,-28.4065 0,-15.6883 12.7179,-28.4063 28.4062,-28.4063 15.6883,0 28.406,12.718 28.406,28.4063 z"
             fill="#00883a"
             transform="matrix(1.0033,0,0,1,488,337)"
             id="path6" />
          <path
             d="m 255.656,97.2125 c 0,15.6885 -12.718,28.4065 -28.406,28.4065 -15.688,0 -28.406,-12.718 -28.406,-28.4065 0,-15.6883 12.718,-28.4063 28.406,-28.4063 15.688,0 28.406,12.718 28.406,28.4063 z"
             fill="#00883a"
             transform="matrix(1.0033,0,0,1,488,337)"
             id="path7" />
          <path
             d="m 208.312,234.194 v -28.407 c 0,-4.418 -1.893,-8.837 -5.681,-11.362 -7.575,-6.313 -17.675,-10.731 -27.775,-13.256 -6.943,-1.894 -15.15,-3.788 -23.356,-3.788 -7.575,0 -15.781,1.263 -23.356,3.788 -10.1,2.525 -19.569,7.575 -27.775,13.256 -3.7877,3.156 -5.6815,6.944 -5.6815,11.362 v 28.407 z"
             fill="#00883a"
             transform="matrix(1.0033,0,0,1,488,337)"
             id="path8" />
          <path
             d="m 179.906,141.4 c 0,15.688 -12.718,28.406 -28.406,28.406 -15.688,0 -28.406,-12.718 -28.406,-28.406 0,-15.688 12.718,-28.406 28.406,-28.406 15.688,0 28.406,12.718 28.406,28.406 z"
             fill="#00883a"
             transform="matrix(1.0033,0,0,1,488,337)"
             id="path9" />
          <path
             d="m 278.381,150.237 c -7.575,-6.312 -17.675,-10.731 -27.775,-13.256 -6.944,-1.894 -15.15,-3.787 -23.356,-3.787 -7.575,0 -15.781,1.262 -23.356,3.787 -3.788,1.263 -7.575,2.525 -11.363,4.419 v 0.631 c 0,10.732 -4.419,20.831 -11.362,27.775 11.994,3.788 21.462,8.838 29.037,14.519 1.894,1.894 3.788,3.156 5.05,5.681 h 68.806 V 161.6 c 0,-4.419 -1.893,-8.837 -5.681,-11.363 z"
             fill="#00883a"
             transform="matrix(1.0033,0,0,1,488,337)"
             id="path10" />
          <path
             d="m 92.7937,184.325 v 0 c 8.8373,-6.312 18.9373,-11.363 29.0373,-14.519 -6.943,-7.575 -11.362,-17.043 -11.362,-27.775 0,-0.631 0,-0.631 0,-1.262 -3.788,-1.263 -7.575,-3.157 -11.3628,-3.788 -6.9437,-1.894 -15.1499,-3.787 -23.3562,-3.787 -7.575,0 -15.7812,1.262 -23.3562,3.787 -10.1001,3.157 -19.5688,7.575 -27.775,13.256 -3.7876,2.526 -5.6813,6.944 -5.6813,11.363 v 28.406 h 68.175 c 1.8938,-2.525 3.1563,-3.787 5.6812,-5.681 z"
             fill="#00883a"
             transform="matrix(1.0033,0,0,1,488,337)"
             id="path11" />
        </g>
      </g>
    </g>
  </g>
</svg>
