<?xml version="1.0" encoding="UTF-8" standalone="no"?>
<svg
   width="492"
   height="492"
   overflow="hidden"
   version="1.1"
   id="svg6"
   sodipodi:docname="discussion.svg"
   inkscape:version="1.4.3 (0d15f75, 2025-12-25)"
   xmlns:inkscape="http://www.inkscape.org/namespaces/inkscape"
   xmlns:sodipodi="http://sodipodi.sourceforge.net/DTD/sodipodi-0.dtd"
   xmlns="http://www.w3.org/2000/svg"
   xmlns:svg="http://www.w3.org/2000/svg">
  <defs
     id="defs6" />
  <sodipodi:namedview
     id="namedview6"
     pagecolor="#ffffff"
     bordercolor="#000000"
     borderopacity="0.25"
     inkscape:showpageshadow="2"
     inkscape:pageopacity="0.0"
     inkscape:pagecheckerboard="0"
     inkscape:deskcolor="#d1d1d1"
     inkscape:zoom="0.6875"
     inkscape:cx="245.81818"
     inkscape:cy="245.81818"
     inkscape:window-width="1687"
     inkscape:window-height="1279"
     inkscape:window-x="0"
     inkscape:window-y="25"
     inkscape:window-maximized="0"
     inkscape:current-layer="svg6" />
  <g
     id="g6"
     transform="translate(-394,-114)">
    <path
       d="M 394,270.043 C 394,183.863 463.863,114 550.043,114 H 729.957 C 816.137,114 886,183.863 886,270.043 V 449.957 C 886,536.137 816.137,606 729.957,606 H 550.043 C 463.863,606 394,536.137 394,449.957 Z"
       fill="#fceebd"
       fill-rule="evenodd"
       id="path1" />
    <g
       id="g5">
      <g
         id="g4">
        <g
           id="g3">
          <path
             d="m 611.625,260.688 h 75.667 V 246.5 c 0,-10.404 -8.513,-18.917 -18.917,-18.917 H 469.75 c -10.404,0 -18.917,8.513 -18.917,18.917 v 127.688 c 0,10.404 8.513,18.916 18.917,18.916 h 28.375 v 47.292 l 47.292,-47.292 h 28.375 v -94.583 c 0,-20.809 17.025,-37.833 37.833,-37.833 z"
             fill="#00883a"
             id="path2" />
          <path
             d="M 810.25,279.604 H 611.625 c -10.404,0 -18.917,8.513 -18.917,18.917 v 127.687 c 0,10.404 8.513,18.917 18.917,18.917 h 122.958 l 47.292,47.292 v -47.292 h 28.375 c 10.404,0 18.917,-8.513 18.917,-18.917 V 298.521 c 0,-10.404 -8.513,-18.917 -18.917,-18.917 z"
             fill="#00883a"
             id="path3" />
        </g>
      </g>
    </g>
  </g>
</svg>
