<?xml version="1.0" encoding="UTF-8" standalone="no"?>
<svg
   width="492"
   height="492"
   overflow="hidden"
   version="1.1"
   id="svg14"
   sodipodi:docname="event.svg"
   inkscape:version="1.4.3 (0d15f75, 2025-12-25)"
   xmlns:inkscape="http://www.inkscape.org/namespaces/inkscape"
   xmlns:sodipodi="http://sodipodi.sourceforge.net/DTD/sodipodi-0.dtd"
   xmlns="http://www.w3.org/2000/svg"
   xmlns:svg="http://www.w3.org/2000/svg">
  <defs
     id="defs14" />
  <sodipodi:namedview
     id="namedview14"
     pagecolor="#ffffff"
     bordercolor="#000000"
     borderopacity="0.25"
     inkscape:showpageshadow="2"
     inkscape:pageopacity="0.0"
     inkscape:pagecheckerboard="0"
     inkscape:deskcolor="#d1d1d1"
     inkscape:zoom="0.6875"
     inkscape:cx="245.81818"
     inkscape:cy="246.54545"
     inkscape:window-width="1024"
     inkscape:window-height="1186"
     inkscape:window-x="0"
     inkscape:window-y="25"
     inkscape:window-maximized="0"
     inkscape:current-layer="svg14" />
  <g
     id="g14"
     transform="translate(-394,-114)">
    <path
       d="M 394,270.043 C 394,183.863 463.863,114 550.043,114 H 729.957 C 816.137,114 886,183.863 886,270.043 V 449.957 C 886,536.137 816.137,606 729.957,606 H 550.043 C 463.863,606 394,536.137 394,449.957 Z"
       fill="#fceebd"
       fill-rule="evenodd"
       id="path1" />
    <g
       id="g13">
      <g
         id="g12">
        <g
           id="g11">
          <path
             d="M 660.286,321.776 H 622.66 c -3.538,0 -6.406,2.868 -6.406,6.406 0,3.538 2.868,6.407 6.406,6.407 h 37.626 c 3.538,0 6.407,-2.869 6.407,-6.407 0,-3.538 -2.869,-6.406 -6.407,-6.406 z"
             fill="#00883a"
             id="path2" />
          <path
             d="m 641.452,355.729 c 7.218,-0.007 13.194,-5.61 13.667,-12.812 h -27.291 c 0.451,7.196 6.414,12.804 13.624,12.812 z"
             fill="#00883a"
             id="path3" />
          <path
             d="m 641.452,199.587 v 0 c -29.827,0.204 -54.049,24.16 -54.581,53.984 v 1.879 c 0.145,6.55 1.431,13.025 3.801,19.133 2.207,5.707 5.418,10.972 9.481,15.546 5.065,6.396 9.365,13.362 12.813,20.756 0.716,1.423 2.165,2.328 3.758,2.349 h 49.542 c 1.592,-0.021 3.041,-0.926 3.758,-2.349 3.451,-7.392 7.751,-14.358 12.812,-20.756 4.037,-4.586 7.233,-9.848 9.439,-15.546 2.305,-6.052 3.59,-12.446 3.801,-18.919 v -1.88 c -0.441,-29.913 -24.708,-53.991 -54.624,-54.197 z m 42.025,55.521 c -0.177,5.043 -1.187,10.022 -2.99,14.735 -1.683,4.232 -4.097,8.135 -7.132,11.531 -4.798,5.815 -8.911,12.164 -12.257,18.92 h -39.249 c -3.362,-6.757 -7.489,-13.106 -12.3,-18.92 -3.022,-3.398 -5.421,-7.301 -7.09,-11.531 -1.802,-4.713 -2.812,-9.692 -2.989,-14.735 v -1.537 c 0.394,-22.944 19.035,-41.377 41.982,-41.513 v 0 c 22.955,0.136 41.608,18.562 42.025,41.513 z"
             fill="#00883a"
             id="path4" />
          <path
             d="m 620.867,267.451 22.592,-44.118 v 25.54 l 23.447,-4.655 -23.447,43.178 v -25.07 z"
             fill="#00883a"
             id="path5" />
          <path
             d="m 763.171,383.618 c 0,18.351 -14.876,33.227 -33.227,33.227 -18.351,0 -33.227,-14.876 -33.227,-33.227 0,-18.351 14.876,-33.227 33.227,-33.227 18.351,0 33.227,14.876 33.227,33.227 z"
             fill="#00883a"
             id="path6" />
          <path
             d="m 585.931,383.618 c 0,18.351 -14.876,33.227 -33.227,33.227 -18.351,0 -33.227,-14.876 -33.227,-33.227 0,-18.351 14.876,-33.227 33.227,-33.227 18.351,0 33.227,14.876 33.227,33.227 z"
             fill="#00883a"
             id="path7" />
          <path
             d="m 789.735,445.63 c -9.571,-7.454 -20.645,-12.743 -32.458,-15.503 -8.89,-2.593 -18.076,-4.029 -27.333,-4.271 -9.279,-0.02 -18.503,1.421 -27.334,4.271 -8.846,2.358 -17.304,5.983 -25.112,10.763 -0.513,0.598 -0.982,1.195 -1.538,1.751 12.421,3.342 24.04,9.152 34.167,17.083 7.991,5.832 12.656,15.178 12.514,25.07 v 7.602 h 73.757 v -33.441 c 0.128,-5.272 -2.368,-10.264 -6.663,-13.325 z"
             fill="#00883a"
             id="path8" />
          <path
             d="m 560.093,484.794 c 0.009,-9.61 4.414,-18.689 11.958,-24.643 l 0.513,-0.427 0.555,-0.384 c 10.242,-7.286 21.571,-12.908 33.569,-16.657 -0.855,-0.897 -1.623,-1.836 -2.435,-2.776 -7.505,-4.394 -15.603,-7.687 -24.045,-9.78 -8.889,-2.597 -18.076,-4.032 -27.333,-4.271 -9.279,-0.017 -18.502,1.424 -27.333,4.271 -11.649,3.214 -22.637,8.463 -32.459,15.503 -4.206,3.154 -6.727,8.069 -6.833,13.325 v 33.441 h 73.843 z"
             fill="#00883a"
             id="path9" />
          <path
             d="m 574.87,518.021 v -33.227 c 0.02,-5.226 2.485,-10.142 6.662,-13.283 9.804,-7.07 20.798,-12.321 32.459,-15.503 8.826,-2.866 18.053,-4.308 27.333,-4.27 9.259,0.217 18.449,1.653 27.333,4.27 11.836,2.732 22.93,8.024 32.501,15.503 4.278,3.052 6.759,8.03 6.62,13.283 v 33.227 z"
             fill="#00883a"
             id="path10" />
          <path
             d="m 674.551,409.456 c 0,18.351 -14.876,33.227 -33.227,33.227 -18.351,0 -33.227,-14.876 -33.227,-33.227 0,-18.351 14.876,-33.227 33.227,-33.227 18.351,0 33.227,14.876 33.227,33.227 z"
             fill="#00883a"
             id="path11" />
        </g>
      </g>
    </g>
  </g>
</svg>
