<?xml version="1.0" encoding="UTF-8" standalone="no"?>
<svg
   width="491"
   height="492"
   overflow="hidden"
   version="1.1"
   id="svg14"
   sodipodi:docname="hacky_hour.svg"
   inkscape:version="1.4.3 (0d15f75, 2025-12-25)"
   xmlns:inkscape="http://www.inkscape.org/namespaces/inkscape"
   xmlns:sodipodi="http://sodipodi.sourceforge.net/DTD/sodipodi-0.dtd"
   xmlns="http://www.w3.org/2000/svg"
   xmlns:svg="http://www.w3.org/2000/svg">
  <sodipodi:namedview
     id="namedview14"
     pagecolor="#ffffff"
     bordercolor="#000000"
     borderopacity="0.25"
     inkscape:showpageshadow="2"
     inkscape:pageopacity="0.0"
     inkscape:pagecheckerboard="0"
     inkscape:deskcolor="#d1d1d1"
     inkscape:zoom="0.6875"
     inkscape:cx="237.09091"
     inkscape:cy="246.54545"
     inkscape:window-width="1024"
     inkscape:window-height="1186"
     inkscape:window-x="0"
     inkscape:window-y="25"
     inkscape:window-maximized="0"
     inkscape:current-layer="g14" />
  <defs
     id="defs4">
    <clipPath
       id="clip0">
      <rect
         x="635"
         y="261"
         width="275"
         height="154"
         id="rect1" />
    </clipPath>
    <clipPath
       id="clip1">
      <rect
         x="635"
         y="261"
         width="275"
         height="154"
         id="rect2" />
    </clipPath>
    <clipPath
       id="clip2">
      <rect
         x="392"
         y="352"
         width="357"
         height="199"
         id="rect3" />
    </clipPath>
    <clipPath
       id="clip3">
      <rect
         x="392"
         y="352"
         width="357"
         height="199"
         id="rect4" />
    </clipPath>
  </defs>
  <g
     id="g14"
     transform="translate(-403,-114)">
    <path
       d="M 403,269.726 C 403,183.721 472.721,114 558.726,114 H 738.274 C 824.279,114 894,183.721 894,269.726 V 450.274 C 894,536.279 824.279,606 738.274,606 H 558.726 C 472.721,606 403,536.279 403,450.274 Z"
       fill="#fceebd"
       fill-rule="evenodd"
       id="path5" />
    <g
       clip-path="url(#clip0)"
       id="g9">
      <g
         clip-path="url(#clip1)"
         id="g8">
        <g
           id="g7">
          <path
             d="m 178.177,156.406 c 12.031,4.297 23.49,9.167 32.943,16.901 4.01,3.151 6.302,7.735 6.302,12.891 l 5.156,44.401 c 0.287,2.005 -0.573,4.01 -2.292,5.156 v 0 c -4.869,3.151 -10.026,5.729 -15.468,7.448 v 9.167 h 7.734 c 4.87,-2.005 9.74,-4.297 14.037,-7.162 v 0 c 5.156,-3.437 8.02,-9.739 7.161,-16.041 l -4.583,-43.256 c -0.287,-8.307 -4.011,-16.041 -10.599,-21.197 -10.599,-8.881 -23.203,-14.323 -36.381,-18.907 l -14.036,-5.729 c -1.146,-0.573 -1.719,-1.432 -1.719,-2.578 v -6.875 c 10.886,-8.594 17.188,-21.771 17.188,-35.8073 V 84.5052 c 1.719,1.1458 3.724,1.4323 5.729,1.7188 l -4.87,-14.323 c -0.573,-2.0052 -1.146,-4.0104 -1.432,-6.0156 -2.292,-16.3281 -12.031,-27.7864 -25.495,-34.9479 -1.146,-0.5729 -2.578,-0.5729 -3.724,0.2865 l -2.578,2.0052 -2.865,-4.0105 c -0.859,-1.1458 -2.005,-2.2916 -3.437,-2.5781 -2.578,-0.5729 -5.156,-0.8594 -7.734,-0.8594 -22.631,0 -41.5369,17.7605 -45.5473,40.9636 v 2.0052 0 4.8698 c 0,6.3021 -1.1459,12.3177 -3.724,18.0469 l -4.8698,11.4583 c 0,0 3.4375,-0.859 9.1667,-2.578 1.4323,11.745 7.4479,22.344 16.6144,29.505 v 7.162 c 0,1.145 -0.573,2.291 -1.719,2.578 l -14.036,5.729 c -13.1771,4.583 -25.7813,10.026 -36.3803,18.906 -6.5885,5.156 -10.5989,12.891 -10.8854,21.198 l -4.8698,43.542 c -0.8593,6.302 2.0053,12.604 7.1615,16.041 4.2969,2.865 9.1667,5.157 14.0365,7.162 h 8.0208 v -8.88 c -5.4427,-2.006 -10.599,-4.297 -15.4688,-7.448 -1.7187,-1.146 -2.5781,-3.151 -2.2916,-5.157 l 4.8698,-44.114 v -0.573 c 0,-5.156 2.5781,-9.74 6.5885,-12.891 9.4531,-7.734 20.9115,-12.604 32.9427,-16.901 l 4.5831,-1.432 c 8.308,5.156 21.485,8.307 36.094,8.307 14.609,0 27.786,-3.151 36.38,-8.307 z M 103.125,97.1094 c 19.479,-6.5886 47.552,-18.0469 60.156,-34.0886 2.578,4.0104 5.443,7.7344 8.594,11.4584 v 20.052 c 0,18.9058 -15.469,34.3748 -34.375,34.3748 -18.047,0 -32.943,-13.75 -34.375,-31.7966 z m 11.458,51.5626 c 3.438,-2.578 5.729,-6.875 5.729,-11.458 v -0.287 c 10.886,4.583 23.49,4.583 34.376,0 v 0.287 c 0,4.296 2.005,8.593 5.442,11.458 -7.448,2.292 -15.182,3.437 -22.916,3.151 -7.448,0 -15.183,-1.146 -22.631,-3.151 z"
             fill="#00883a"
             transform="matrix(1,0,0,1.00497,635,138.63)"
             id="path6" />
          <path
             d="m 199.375,187.057 c 0,-4.01 -3.151,-7.161 -7.161,-7.161 v 0 H 83.0729 c -4.0104,0 -7.1614,3.151 -7.1614,7.161 v 0 71.328 H 54.1406 v 3.724 c 0,4.011 3.1511,7.162 7.1615,7.162 H 213.984 c 4.011,0 7.162,-3.151 7.162,-7.162 v -3.724 h -21.771 z m -76.771,47.266 -4.01,4.01 -16.042,-16.041 16.042,-16.042 4.01,4.01 -12.031,12.032 z m 10.886,6.016 -5.157,-2.292 13.464,-32.37 5.156,2.292 z m 22.916,-1.719 -4.01,-4.011 12.031,-12.031 -12.031,-12.031 4.01,-4.011 16.042,16.042 z"
             fill="#00883a"
             transform="matrix(1,0,0,1.00497,635,138.63)"
             id="path7" />
        </g>
      </g>
    </g>
    <path
       d="m 722.5,220.5 c 0,-28.166 22.834,-51 51,-51 28.167,0 51,22.834 51,51 0,28.167 -22.833,51 -51,51 -28.166,0 -51,-22.833 -51,-51 z"
       stroke="#00883a"
       stroke-width="11.3333"
       stroke-linejoin="round"
       stroke-miterlimit="10"
       fill="none"
       fill-rule="evenodd"
       id="path9" />
    <g
       clip-path="url(#clip2)"
       id="g13">
      <g
         clip-path="url(#clip3)"
         id="g12">
        <g
           id="g11">
          <path
             d="m 231.306,203.044 c 15.619,5.578 30.494,11.9 42.766,21.94 5.206,4.091 8.181,10.041 8.181,16.735 l 6.694,57.64 c 0.372,2.603 -0.744,5.207 -2.975,6.694 v 0 c -6.322,4.091 -13.016,7.438 -20.081,9.669 v 11.9 h 10.04 c 6.322,-2.603 12.644,-5.578 18.222,-9.297 v 0 c 6.694,-4.462 10.413,-12.644 9.297,-20.825 l -5.95,-56.153 c -0.372,-10.785 -5.206,-20.825 -13.759,-27.519 -13.76,-11.528 -30.122,-18.594 -47.229,-24.544 l -18.221,-7.437 c -1.488,-0.744 -2.232,-1.859 -2.232,-3.347 v -8.925 c 14.132,-11.156 22.313,-28.263 22.313,-46.484 v -13.388 c 2.231,1.488 4.834,1.859 7.437,2.231 l -6.321,-18.5934 c -0.744,-2.6031 -1.488,-5.2062 -1.86,-7.8094 -2.975,-21.1968 -15.619,-36.0718 -33.097,-45.3687 -1.487,-0.7437 -3.347,-0.7437 -4.834,0.3719 l -3.347,2.6031 -3.719,-5.2063 c -1.115,-1.4874 -2.603,-2.975 -4.462,-3.3468 -3.347,-0.7438 -6.694,-1.1156 -10.041,-1.1156 -29.378,0 -53.922,23.0562 -59.128,53.1781 v 2.6031 0 6.3219 c 0,8.1811 -1.487,15.9901 -4.834,23.4281 l -6.322,14.875 c 0,0 4.462,-1.116 11.9,-3.347 1.859,15.247 9.668,29.006 21.568,38.303 v 9.297 c 0,1.488 -0.743,2.975 -2.231,3.347 l -18.222,7.437 C 103.753,194.863 87.3906,201.928 73.6312,213.456 65.0781,220.15 59.8719,230.191 59.5,240.975 L 53.1781,297.5 c -1.1156,8.181 2.6031,16.363 9.2969,20.825 5.5781,3.719 11.9,6.694 18.2219,9.297 h 10.4125 v -11.528 c -7.0656,-2.603 -13.7594,-5.578 -20.0813,-9.669 -2.2312,-1.487 -3.3468,-4.091 -2.975,-6.694 l 6.3219,-57.269 v -0.743 c 0,-6.694 3.3469,-12.644 8.5531,-16.735 12.2719,-10.04 27.1469,-16.362 42.7659,-21.94 l 5.95,-1.86 c 10.784,6.694 27.89,10.785 46.856,10.785 18.966,0 36.072,-4.091 47.228,-10.785 z m -97.431,-76.978 c 25.287,-8.553 61.731,-23.428 78.094,-44.2535 3.347,5.2062 7.065,10.0406 11.156,14.875 v 26.0315 c 0,24.543 -20.081,44.625 -44.625,44.625 -23.428,0 -42.766,-17.85 -44.625,-41.278 z m 14.875,66.937 c 4.463,-3.347 7.438,-8.925 7.438,-14.875 v -0.372 c 14.131,5.95 30.493,5.95 44.624,0 v 0.372 c 0,5.578 2.604,11.156 7.066,14.875 -9.669,2.975 -19.709,4.463 -29.75,4.091 -9.669,0 -19.709,-1.488 -29.378,-4.091 z"
             fill="#00883a"
             transform="matrix(1,0,0,1.00035,392,193.873)"
             id="path10" />
          <path
             d="m 258.825,242.834 c 0,-5.206 -4.091,-9.297 -9.297,-9.297 v 0 H 107.844 c -5.206,0 -9.2971,4.091 -9.2971,9.297 v 0 92.597 H 70.2844 v 4.835 c 0,5.206 4.0906,9.296 9.2968,9.296 H 277.791 c 5.206,0 9.296,-4.09 9.296,-9.296 v -4.835 h -28.262 z m -99.663,61.36 -5.206,5.206 -20.825,-20.825 20.825,-20.825 5.206,5.206 -15.618,15.619 z m 14.132,7.809 -6.694,-2.975 17.478,-42.022 6.694,2.975 z m 29.75,-2.231 -5.206,-5.206 15.618,-15.619 -15.618,-15.619 5.206,-5.206 20.825,20.825 z"
             fill="#00883a"
             transform="matrix(1,0,0,1.00035,392,193.873)"
             id="path11" />
        </g>
      </g>
    </g>
    <path
       d="m 504,299 c 0,-36.451 29.773,-66 66.5,-66 36.727,0 66.5,29.549 66.5,66 0,36.451 -29.773,66 -66.5,66 -36.727,0 -66.5,-29.549 -66.5,-66 z"
       stroke="#00883a"
       stroke-width="16"
       stroke-linejoin="round"
       stroke-miterlimit="10"
       fill="none"
       fill-rule="evenodd"
       id="path13" />
  </g>
</svg>
