<?xml version="1.0" encoding="UTF-8" standalone="no"?>
<svg
   width="492"
   height="492"
   overflow="hidden"
   version="1.1"
   id="svg11"
   sodipodi:docname="interview.svg"
   inkscape:version="1.4.3 (0d15f75, 2025-12-25)"
   xmlns:inkscape="http://www.inkscape.org/namespaces/inkscape"
   xmlns:sodipodi="http://sodipodi.sourceforge.net/DTD/sodipodi-0.dtd"
   xmlns="http://www.w3.org/2000/svg"
   xmlns:svg="http://www.w3.org/2000/svg">
  <defs
     id="defs11" />
  <sodipodi:namedview
     id="namedview11"
     pagecolor="#ffffff"
     bordercolor="#000000"
     borderopacity="0.25"
     inkscape:showpageshadow="2"
     inkscape:pageopacity="0.0"
     inkscape:pagecheckerboard="0"
     inkscape:deskcolor="#d1d1d1"
     inkscape:zoom="0.6875"
     inkscape:cx="245.81818"
     inkscape:cy="246.54545"
     inkscape:window-width="1024"
     inkscape:window-height="1186"
     inkscape:window-x="0"
     inkscape:window-y="25"
     inkscape:window-maximized="0"
     inkscape:current-layer="svg11" />
  <g
     id="g11"
     transform="translate(-394,-114)">
    <path
       d="M 394,270.043 C 394,183.863 463.863,114 550.043,114 H 729.957 C 816.137,114 886,183.863 886,270.043 V 449.957 C 886,536.137 816.137,606 729.957,606 H 550.043 C 463.863,606 394,536.137 394,449.957 Z"
       fill="#fceebd"
       fill-rule="evenodd"
       id="path1" />
    <g
       id="g4">
      <g
         id="g3">
        <g
           id="g2">
          <path
             d="m 568.396,477.417 v -2.979 h 11.916 c 21.153,0 22.642,23.833 62.563,23.833 H 696.5 c 9.86,-0.03 17.846,-8.015 17.875,-17.875 0.069,-4.426 -1.63,-8.696 -4.719,-11.866 -0.012,-0.012 -0.011,-0.031 0,-0.042 0.006,-0.006 0.013,-0.009 0.021,-0.009 h 1.719 c 9.86,-0.029 17.845,-8.015 17.875,-17.875 0.044,-4.661 -1.766,-9.149 -5.032,-12.477 -0.013,-0.009 -0.016,-0.028 -0.006,-0.041 0.002,-0.003 0.004,-0.004 0.006,-0.006 9.592,-2.108 15.66,-11.592 13.552,-21.184 -0.771,-3.511 -2.587,-6.705 -5.21,-9.162 -0.013,-0.008 -0.016,-0.025 -0.008,-0.037 0.002,-0.003 0.005,-0.006 0.008,-0.008 7.021,-2.517 11.674,-9.21 11.586,-16.668 -0.03,-9.86 -8.016,-17.846 -17.875,-17.875 h -56.604 c -4.787,-0.083 -8.693,-3.858 -8.938,-8.64 0.298,-5.362 8.908,-16.052 8.938,-56.699 0.048,-9.286 -6.976,-17.084 -16.216,-18.003 -0.557,-0.051 -1.111,-0.075 -1.66,-0.075 -9.872,0 -17.874,8.003 -17.874,17.875 0,36.823 -34.857,60.644 -48.379,68.581 -3.266,1.915 -6.984,2.923 -10.77,2.919 h -6.393 v -2.979 c -0.021,-6.573 -5.344,-11.896 -11.917,-11.917 h -50.646 v 125.125 h 50.646 c 6.573,-0.021 11.896,-5.344 11.917,-11.916 z m 6.393,-92.355 c 4.855,0.002 9.622,-1.293 13.809,-3.75 15.423,-9.06 51.298,-34.383 51.298,-73.708 0,-6.581 5.335,-11.916 11.916,-11.916 6.582,-0.012 11.927,5.313 11.939,11.894 10e-4,0.248 -0.007,0.496 -0.022,0.743 -0.074,29.071 -4.626,41.896 -7.072,48.778 -0.957,2.256 -1.586,4.638 -1.865,7.073 -0.012,0.212 -0.012,0.425 0,0.637 0.443,7.936 6.948,14.177 14.896,14.291 h 56.586 c 6.594,0.043 11.922,5.394 11.934,11.988 0.06,4.927 -3.018,9.347 -7.659,10.999 -3.1,1.105 -4.717,4.514 -3.612,7.613 0.321,0.9 0.852,1.708 1.55,2.359 2.645,2.462 4.028,5.992 3.763,9.596 -0.575,5.246 -4.43,9.542 -9.584,10.68 -3.176,0.86 -5.054,4.132 -4.193,7.309 0.268,0.992 0.789,1.898 1.512,2.629 2.165,2.22 3.362,5.208 3.327,8.309 -0.034,6.571 -5.346,11.891 -11.916,11.935 h -1.788 c -3.29,0.002 -5.956,2.671 -5.954,5.962 10e-4,1.558 0.612,3.054 1.703,4.167 2.012,2.064 3.114,4.847 3.06,7.728 -0.034,6.57 -5.347,11.89 -11.917,11.934 h -53.625 c -21.054,0 -29.815,-6.852 -38.291,-13.447 -6.545,-5.107 -13.311,-10.386 -24.272,-10.386 h -11.916 v -83.417 z m -62.997,-14.895 h 44.687 c 3.28,0.026 5.933,2.678 5.959,5.958 v 101.274 c -0.015,3.287 -2.671,5.952 -5.959,5.976 h -44.687 z"
             stroke="#00883a"
             stroke-width="11.9167"
             id="path2" />
        </g>
      </g>
    </g>
    <path
       d="m 669.5,242 c 0,-37.279 30.221,-67.5 67.5,-67.5 37.279,0 67.5,30.221 67.5,67.5 0,37.279 -30.221,67.5 -67.5,67.5 -37.279,0 -67.5,-30.221 -67.5,-67.5 z"
       stroke="#00883a"
       stroke-width="13.3333"
       stroke-linejoin="round"
       stroke-miterlimit="10"
       fill="none"
       fill-rule="evenodd"
       id="path4" />
    <path
       d="m 672.5,231.5 125.409,32.651"
       stroke="#00883a"
       stroke-width="13.3333"
       stroke-linejoin="round"
       stroke-miterlimit="10"
       fill="none"
       fill-rule="evenodd"
       id="path5" />
    <path
       d="m 674.5,270.5 102.441,29.21"
       stroke="#00883a"
       stroke-width="13.3333"
       stroke-linejoin="round"
       stroke-miterlimit="10"
       fill="none"
       fill-rule="evenodd"
       id="path6" />
    <path
       d="m 755.085,304.069 c -1.364,10.596 -18.709,14.96 -38.74,9.746 -20.031,-5.213 -35.163,-18.03 -33.799,-28.626 0.03,-0.229 0.067,-0.457 0.112,-0.682 l 36.158,10.122 z"
       stroke="#fceebd"
       stroke-width="2.66667"
       stroke-linejoin="round"
       stroke-miterlimit="10"
       fill="#fceebd"
       fill-rule="evenodd"
       id="path7" />
    <path
       d="M 0,0 18.0738,60.5162"
       stroke="#fceebd"
       stroke-width="13.3333"
       stroke-linejoin="round"
       stroke-miterlimit="10"
       fill="#fceebd"
       fill-rule="evenodd"
       transform="matrix(1,0,0,-1,734.5,360.016)"
       id="path8" />
    <path
       d="M 0,0 5.61459,18.1649"
       stroke="#fceebd"
       stroke-width="13.3333"
       stroke-linejoin="round"
       stroke-miterlimit="10"
       fill="#fceebd"
       fill-rule="evenodd"
       transform="matrix(1,0,0,-1,683.5,299.665)"
       id="path9" />
    <path
       d="M 0,0 6.93617,48.2687"
       stroke="#00883a"
       stroke-width="13.3333"
       stroke-linejoin="round"
       stroke-miterlimit="10"
       fill="none"
       fill-rule="evenodd"
       transform="matrix(1,0,0,-1,669.5,320.769)"
       id="path10" />
    <path
       d="M 0,0 32.5325,84.127"
       stroke="#00883a"
       stroke-width="13.3333"
       stroke-linejoin="round"
       stroke-miterlimit="10"
       fill="none"
       fill-rule="evenodd"
       transform="matrix(1,0,0,-1,735.5,380.627)"
       id="path11" />
  </g>
</svg>
