<?xml version="1.0" encoding="UTF-8" standalone="no"?>
<svg
   width="498.80219"
   height="499.21481"
   overflow="hidden"
   version="1.1"
   id="svg25"
   sodipodi:docname="new_member.svg"
   inkscape:version="1.4.3 (0d15f75, 2025-12-25)"
   xmlns:inkscape="http://www.inkscape.org/namespaces/inkscape"
   xmlns:sodipodi="http://sodipodi.sourceforge.net/DTD/sodipodi-0.dtd"
   xmlns="http://www.w3.org/2000/svg"
   xmlns:svg="http://www.w3.org/2000/svg">
  <sodipodi:namedview
     id="namedview25"
     pagecolor="#ffffff"
     bordercolor="#000000"
     borderopacity="0.25"
     inkscape:showpageshadow="2"
     inkscape:pageopacity="0.0"
     inkscape:pagecheckerboard="0"
     inkscape:deskcolor="#d1d1d1"
     inkscape:zoom="0.6875"
     inkscape:cx="248.72727"
     inkscape:cy="250.90909"
     inkscape:window-width="1024"
     inkscape:window-height="1186"
     inkscape:window-x="0"
     inkscape:window-y="25"
     inkscape:window-maximized="0"
     inkscape:current-layer="svg25" />
  <defs
     id="defs9">
    <clipPath
       id="clip0">
      <rect
         x="471"
         y="262"
         width="191"
         height="192"
         id="rect1" />
    </clipPath>
    <clipPath
       id="clip1">
      <rect
         x="471"
         y="262"
         width="191"
         height="192"
         id="rect2" />
    </clipPath>
    <clipPath
       id="clip2">
      <rect
         x="471"
         y="262"
         width="191"
         height="192"
         id="rect3" />
    </clipPath>
    <clipPath
       id="clip3">
      <rect
         x="541"
         y="207"
         width="248"
         height="249"
         id="rect4" />
    </clipPath>
    <clipPath
       id="clip4">
      <rect
         x="541"
         y="207"
         width="248"
         height="249"
         id="rect5" />
    </clipPath>
    <clipPath
       id="clip5">
      <rect
         x="541"
         y="207"
         width="248"
         height="249"
         id="rect6" />
    </clipPath>
    <clipPath
       id="clip6">
      <rect
         x="564"
         y="207"
         width="249"
         height="249"
         id="rect7" />
    </clipPath>
    <clipPath
       id="clip7">
      <rect
         x="564"
         y="207"
         width="249"
         height="249"
         id="rect8" />
    </clipPath>
    <clipPath
       id="clip8">
      <rect
         x="564"
         y="207"
         width="249"
         height="249"
         id="rect9" />
    </clipPath>
  </defs>
  <g
     id="g25"
     transform="translate(-390.5988,-109.11062)">
    <g
       id="g12">
      <g
         id="g11">
        <g
           id="g10">
          <path
             d="m 500.43,265.361 30.949,-62.659 c 1.942,-3.911 1.785,-8.583 -0.394,-12.363 -2.179,-3.806 -6.143,-6.248 -10.526,-6.537 l -69.72,-4.515 -4.515,-69.72 c -0.289,-4.383 -2.73,-8.321 -6.536,-10.5257 -3.807,-2.205 -8.453,-2.3626 -12.391,-0.3938 L 364.691,129.623 325.92,71.4788 c -4.883,-7.2975 -16.957,-7.2975 -21.84,0 L 265.309,129.623 202.702,98.6475 c -3.963,-1.9688 -8.583,-1.8112 -12.39,0.3938 -3.806,2.1787 -6.247,6.1427 -6.536,10.5257 l -4.489,69.72 -69.746,4.489 c -4.383,0.289 -8.347,2.73 -10.526,6.536 -2.205,3.807 -2.3363,8.453 -0.3938,12.39 l 30.9488,62.633 -58.1175,38.771 c -3.6488,2.442 -5.8537,6.536 -5.8537,10.92 0,4.384 2.1787,8.479 5.8537,10.92 l 58.1435,38.771 -30.9748,62.633 c -1.9425,3.938 -1.7849,8.584 0.3938,12.39 2.179,3.78 6.143,6.247 10.526,6.51 l 69.72,4.489 4.489,69.746 c 0.289,4.384 2.73,8.321 6.536,10.526 3.78,2.179 8.4,2.31 12.39,0.394 l 62.633,-30.949 38.771,58.118 c 2.441,3.648 6.536,5.854 10.92,5.854 4.384,0 8.479,-2.179 10.92,-5.854 l 38.771,-58.118 62.633,30.949 c 3.937,1.916 8.584,1.785 12.39,-0.394 3.806,-2.178 6.247,-6.142 6.536,-10.526 l 4.489,-69.72 69.72,-4.515 c 4.383,-0.289 8.321,-2.73 10.526,-6.536 2.179,-3.806 2.336,-8.453 0.394,-12.39 L 500.43,364.717 558.547,325.92 c 3.649,-2.441 5.854,-6.536 5.854,-10.92 0,-4.384 -2.179,-8.479 -5.854,-10.92 z"
             fill="#fceebd"
             transform="matrix(1,0,0,1.00159,325,43)"
             id="path10" />
        </g>
      </g>
    </g>
    <g
       clip-path="url(#clip0)"
       id="g15">
      <g
         clip-path="url(#clip1)"
         id="g14">
        <g
           clip-path="url(#clip2)"
           id="g13">
          <path
             d="m 2143.61,2262.37 c -1.64,8.27 -3.5,19.06 -9.09,19.06 -0.62,-0.02 -1.24,-0.15 -1.81,-0.39 -1.89,4.61 -4.11,14.32 -6.62,18.99 -26.52,17.1 -34.15,52.46 -17.06,78.97 1.66,2.56 3.51,4.99 5.55,7.26 h -110.12 c 0,0 4.85,-26.81 13.37,-28.59 53.42,-11.21 56.59,-41.07 56.59,-41.07 v -15.4 c -2.79,-4.01 -5.23,-15.15 -7.29,-20.16 -0.57,0.23 -1.18,0.37 -1.8,0.38 -5.6,0 -7.45,-10.78 -9.09,-19.06 -0.89,-3.4 -0.91,-6.97 -0.07,-10.39 0,-0.39 -0.06,-0.79 -0.06,-1.18 0,-29.54 11.58,-51.98 37.45,-55.11 0,0 4.16,-0.22 6.07,-0.34 1.4,0.12 6.66,0.34 6.66,0.34 25.87,3.13 37.46,25.57 37.46,55.11 0,0.39 -0.06,0.79 -0.07,1.18 0.85,3.42 0.82,6.99 -0.07,10.4 z m -43.69,-67.09 v 0 c 1.16,-0.17 2.25,0.63 2.43,1.8 0.17,1.17 -0.64,2.26 -1.81,2.43 -1.16,0.18 -2.25,-0.63 -2.42,-1.8 -0.16,-1.05 0.48,-2.05 1.5,-2.36 -0.49,-0.04 -0.52,-0.07 0.3,-0.07 z"
             fill="#00883a"
             fill-rule="evenodd"
             transform="matrix(1,0,0,1.00524,-1533.21,-1944.76)"
             id="path12" />
          <path
             d="m 2156.79,2309.91 c 21.08,0 38.18,17.09 38.18,38.18 0,21.08 -17.1,38.18 -38.18,38.18 -21.09,0 -38.18,-17.1 -38.18,-38.18 0,-21.09 17.09,-38.18 38.18,-38.18 z m -18.69,44.54 h 12.72 v 12.73 c 0,3.51 2.85,6.36 6.37,6.36 3.51,0 6.36,-2.85 6.36,-6.36 v -12.73 h 12.73 c 3.51,0 6.36,-2.85 6.36,-6.36 0,-3.52 -2.85,-6.37 -6.36,-6.37 h -12.73 V 2329 c 0,-3.52 -2.85,-6.37 -6.36,-6.37 -3.52,0 -6.37,2.85 -6.37,6.37 v 12.72 h -12.72 c -3.52,0 -6.37,2.85 -6.37,6.37 0,3.51 2.85,6.36 6.37,6.36 z"
             fill="#00883a"
             fill-rule="evenodd"
             transform="matrix(1,0,0,1.00524,-1533.21,-1944.76)"
             id="path13" />
        </g>
      </g>
    </g>
    <path
       d="m 550,282 c 0,-11.046 6.716,-20 15,-20 8.284,0 15,8.954 15,20 0,11.046 -6.716,20 -15,20 -8.284,0 -15,-8.954 -15,-20 z"
       fill="#00883a"
       fill-rule="evenodd"
       id="path15" />
    <g
       clip-path="url(#clip3)"
       id="g19">
      <g
         clip-path="url(#clip4)"
         id="g18">
        <g
           clip-path="url(#clip5)"
           id="g17">
          <path
             d="m 2783.32,2937.53 c -2.13,10.74 -4.54,24.75 -11.8,24.75 -0.81,-0.03 -1.6,-0.2 -2.35,-0.51 -2.45,5.98 -5.33,18.59 -8.59,24.66 -34.43,22.2 -44.35,68.11 -22.15,102.54 2.15,3.32 4.55,6.48 7.2,9.42 h -142.97 c 0,0 6.29,-34.81 17.35,-37.13 69.36,-14.55 73.47,-53.32 73.47,-53.32 v -19.99 c -3.61,-5.21 -6.78,-19.68 -9.45,-26.19 -0.75,0.31 -1.54,0.48 -2.35,0.51 -7.27,0 -9.67,-14 -11.8,-24.75 -1.15,-4.42 -1.18,-9.06 -0.08,-13.49 0,-0.51 -0.09,-1.03 -0.09,-1.53 0,-38.36 15.04,-67.51 48.64,-71.56 0,0 5.39,-0.28 7.87,-0.44 1.82,0.15 8.65,0.44 8.65,0.44 33.59,4.05 48.64,33.2 48.64,71.56 0,0.5 -0.08,1.02 -0.09,1.53 1.09,4.43 1.06,9.08 -0.1,13.5 z m -56.73,-87.11 v 0 c 1.52,-0.23 2.93,0.82 3.16,2.33 0.22,1.52 -0.82,2.94 -2.34,3.16 -1.52,0.23 -2.93,-0.82 -3.15,-2.33 -0.21,-1.37 0.62,-2.68 1.94,-3.07 -0.62,-0.05 -0.66,-0.09 0.39,-0.09 z"
             fill="#fceebd"
             fill-rule="evenodd"
             transform="matrix(1,0,0,1.00403,-2061.32,-2654.89)"
             id="path16" />
          <path
             d="m 2800.44,2999.25 c 27.37,0 49.57,22.2 49.57,49.57 0,27.38 -22.2,49.58 -49.57,49.58 -27.38,0 -49.58,-22.2 -49.58,-49.58 0,-27.37 22.2,-49.57 49.58,-49.57 z m -24.27,57.84 h 16.52 v 16.52 c 0,4.57 3.7,8.26 8.26,8.26 4.57,0 8.27,-3.69 8.27,-8.26 v -16.52 h 16.52 c 4.56,0 8.26,-3.7 8.26,-8.27 0,-4.56 -3.7,-8.26 -8.26,-8.26 h -16.52 v -16.52 c 0,-4.57 -3.7,-8.26 -8.27,-8.26 -4.56,0 -8.26,3.69 -8.26,8.26 v 16.52 h -16.52 c -4.57,0 -8.27,3.7 -8.27,8.26 0,4.57 3.7,8.27 8.27,8.27 z"
             fill="#fceebd"
             fill-rule="evenodd"
             transform="matrix(1,0,0,1.00403,-2061.32,-2654.89)"
             id="path17" />
        </g>
      </g>
    </g>
    <path
       d="m 645,233 c 0,-14.359 8.954,-26 20,-26 11.046,0 20,11.641 20,26 0,14.359 -8.954,26 -20,26 -11.046,0 -20,-11.641 -20,-26 z"
       fill="#fceebd"
       fill-rule="evenodd"
       id="path19" />
    <g
       clip-path="url(#clip6)"
       id="g23">
      <g
         clip-path="url(#clip7)"
         id="g22">
        <g
           clip-path="url(#clip8)"
           id="g21">
          <path
             d="m 745.726,294.478 c -2.137,10.784 -4.563,24.85 -11.851,24.85 -0.809,-0.025 -1.609,-0.195 -2.356,-0.506 -2.464,6.002 -5.355,18.665 -8.627,24.758 -34.569,22.287 -44.523,68.382 -22.237,102.95 2.153,3.339 4.571,6.504 7.23,9.457 H 564.332 c 0,0 6.317,-34.945 17.421,-37.272 69.642,-14.613 73.773,-53.541 73.773,-53.541 v -20.071 c -3.629,-5.231 -6.815,-19.757 -9.494,-26.289 -0.747,0.306 -1.547,0.481 -2.356,0.505 -7.296,0 -9.714,-14.057 -11.851,-24.849 -1.157,-4.439 -1.186,-9.096 -0.082,-13.547 0,-0.51 -0.087,-1.029 -0.087,-1.535 0,-38.513 15.106,-67.776 48.832,-71.845 0,0 5.417,-0.286 7.906,-0.444 1.825,0.15 8.686,0.444 8.686,0.444 33.726,4.069 48.832,33.332 48.832,71.845 0,0.506 -0.079,1.025 -0.087,1.535 1.099,4.455 1.066,9.117 -0.099,13.555 z m -56.959,-87.457 v 0 c 1.523,-0.229 2.941,0.821 3.169,2.343 0.228,1.526 -0.825,2.945 -2.347,3.169 -1.523,0.228 -2.941,-0.821 -3.165,-2.344 -0.208,-1.373 0.626,-2.683 1.953,-3.081 -0.63,-0.05 -0.668,-0.087 0.39,-0.087 z"
             fill="#00883a"
             fill-rule="evenodd"
             id="path20" />
          <path
             d="m 762.91,356.451 c 27.488,0 49.775,22.287 49.775,49.774 0,27.488 -22.287,49.775 -49.775,49.775 -27.488,0 -49.774,-22.287 -49.774,-49.775 0,-27.487 22.286,-49.774 49.774,-49.774 z m -24.368,58.07 h 16.591 v 16.592 c 0,4.583 3.712,8.295 8.296,8.295 4.583,0 8.295,-3.712 8.295,-8.295 v -16.592 h 16.592 c 4.583,0 8.296,-3.712 8.296,-8.296 0,-4.583 -3.713,-8.295 -8.296,-8.295 h -16.592 v -16.592 c 0,-4.583 -3.712,-8.296 -8.295,-8.296 -4.584,0 -8.296,3.713 -8.296,8.296 v 16.592 h -16.591 c -4.584,0 -8.296,3.712 -8.296,8.295 0,4.584 3.712,8.296 8.296,8.296 z"
             fill="#00883a"
             fill-rule="evenodd"
             id="path21" />
        </g>
      </g>
    </g>
    <path
       d="m 669,233 c 0,-14.359 8.73,-26 19.5,-26 10.77,0 19.5,11.641 19.5,26 0,14.359 -8.73,26 -19.5,26 -10.77,0 -19.5,-11.641 -19.5,-26 z"
       fill="#00883a"
       fill-rule="evenodd"
       id="path23" />
    <path
       d="m 561.793,414.624 c 5.354,-3.227 10.756,-4.083 12.065,-1.912 1.309,2.172 -1.97,6.549 -7.325,9.776 -5.354,3.227 -10.756,4.083 -12.064,1.912 -1.309,-2.172 1.97,-6.549 7.324,-9.776 z"
       fill="#fceebd"
       fill-rule="evenodd"
       id="path24" />
    <path
       d="m 601.297,383.848 c 14.837,-12.321 29.514,-19.118 32.784,-15.182 3.269,3.937 -6.108,17.116 -20.945,29.438 -14.836,12.321 -29.514,19.118 -32.783,15.182 -3.269,-3.937 6.108,-17.116 20.944,-29.438 z"
       fill="#fceebd"
       fill-rule="evenodd"
       id="path25" />
  </g>
</svg>
