<?xml version="1.0" encoding="UTF-8" standalone="no"?>
<svg
   width="492"
   height="492"
   overflow="hidden"
   version="1.1"
   id="svg5"
   sodipodi:docname="new_institutional_member.svg"
   inkscape:version="1.4.3 (0d15f75, 2025-12-25)"
   xmlns:inkscape="http://www.inkscape.org/namespaces/inkscape"
   xmlns:sodipodi="http://sodipodi.sourceforge.net/DTD/sodipodi-0.dtd"
   xmlns="http://www.w3.org/2000/svg"
   xmlns:svg="http://www.w3.org/2000/svg">
  <defs
     id="defs5" />
  <sodipodi:namedview
     id="namedview5"
     pagecolor="#ffffff"
     bordercolor="#000000"
     borderopacity="0.25"
     inkscape:showpageshadow="2"
     inkscape:pageopacity="0.0"
     inkscape:pagecheckerboard="0"
     inkscape:deskcolor="#d1d1d1"
     inkscape:zoom="0.6875"
     inkscape:cx="245.81818"
     inkscape:cy="246.54545"
     inkscape:window-width="1024"
     inkscape:window-height="1186"
     inkscape:window-x="0"
     inkscape:window-y="25"
     inkscape:window-maximized="0"
     inkscape:current-layer="svg5" />
  <g
     id="g5"
     transform="translate(-394,-114)">
    <path
       d="M 394,270.043 C 394,183.863 463.863,114 550.043,114 H 729.957 C 816.137,114 886,183.863 886,270.043 V 449.957 C 886,536.137 816.137,606 729.957,606 H 550.043 C 463.863,606 394,536.137 394,449.957 Z"
       fill="#fceebd"
       fill-rule="evenodd"
       id="path1" />
    <g
       id="g4">
      <g
         id="g3">
        <g
           id="g2">
          <path
             d="m 762.062,466.312 v -7.874 H 750.25 V 324.562 h 11.812 v -7.874 h 11.813 V 293.062 H 762.062 L 640,218.25 517.938,293.062 h -11.813 v 23.626 h 11.813 v 7.874 h 11.812 v 133.876 h -11.812 v 7.874 L 490.375,486 v 15.75 h 299.25 V 486 Z M 592.75,458.438 h -31.5 V 324.562 h 31.5 z m 63,0 h -31.5 V 324.562 h 31.5 z m 63,0 h -31.5 V 324.562 h 31.5 z"
             fill="#00883a"
             id="path2" />
        </g>
      </g>
    </g>
  </g>
</svg>
