<svg width="1280" height="720" xmlns="http://www.w3.org/2000/svg" xmlns:xlink="http://www.w3.org/1999/xlink" overflow="hidden"><g><rect x="0" y="0" width="1280" height="720" fill="#FFFFFF"/><path d="M394 268.726C394 182.721 463.721 113 549.726 113L730.274 113C816.279 113 886 182.721 886 268.726L886 448.274C886 534.279 816.279 604 730.274 604L549.726 604C463.721 604 394 534.279 394 448.274Z" fill="#FCEEBD" fill-rule="evenodd"/><g><g><g><path d="M83.654 150.915C83.6682 148.252 83.8402 145.592 84.1699 142.95L41.6068 142.95 41.6068 158.679 84.1385 158.679C83.8273 156.103 83.6656 153.51 83.654 150.915Z" fill="#00883A" transform="matrix(1 0 0 1.00331 404 127)"/><path d="M151.019 83.5502C153.648 83.5625 156.274 83.7292 158.883 84.0504L158.883 41.4023 143.154 41.4023 143.154 84.0504C145.764 83.7292 148.39 83.5621 151.019 83.5502Z" fill="#00883A" transform="matrix(1 0 0 1.00331 404 127)"/><path d="M203.787 109.16 233.946 79.0045 222.826 67.8871 192.651 98.0588C196.78 101.315 200.518 105.041 203.787 109.16Z" fill="#00883A" transform="matrix(1 0 0 1.00331 404 127)"/><path d="M109.387 98.0588 79.2152 67.8871 68.0947 79.0076 98.2507 109.16C101.52 105.041 105.257 101.315 109.387 98.0588Z" fill="#00883A" transform="matrix(1 0 0 1.00331 404 127)"/><path d="M192.767 203.686 222.826 233.735 233.946 222.612 203.875 192.541C200.617 196.674 196.889 200.414 192.767 203.686Z" fill="#00883A" transform="matrix(1 0 0 1.00331 404 127)"/><path d="M217.868 142.95C218.545 148.17 218.556 153.456 217.899 158.679L260.431 158.679 260.431 142.95Z" fill="#00883A" transform="matrix(1 0 0 1.00331 404 127)"/><path d="M151.019 218.283C148.39 218.27 145.764 218.102 143.154 217.783L143.154 260.226 158.883 260.226 158.883 217.783C156.274 218.102 153.648 218.269 151.019 218.283Z" fill="#00883A" transform="matrix(1 0 0 1.00331 404 127)"/><path d="M98.15 192.55 68.0821 222.618 79.2152 233.735 109.267 203.683C105.144 200.414 101.413 196.678 98.15 192.55Z" fill="#00883A" transform="matrix(1 0 0 1.00331 404 127)"/><path d="M205.8 150.915C205.8 181.17 181.274 205.697 151.019 205.697 120.764 205.697 96.2373 181.17 96.2373 150.915 96.2373 120.66 120.764 96.1335 151.019 96.1335 181.274 96.1335 205.8 120.66 205.8 150.915Z" fill="#00883A" transform="matrix(1 0 0 1.00331 404 127)"/></g></g></g><g><g><g><path d="M62.9167 155.09 62.9167 191.896C62.9167 209.198 102.24 226.5 151 226.5 199.76 226.5 239.083 209.198 239.083 191.896L239.083 155.09 151 186.233 62.9167 155.09Z" fill="#00883A" transform="matrix(1.00331 0 0 1 564 305)"/><path d="M151 172.706 288.158 124.575 151 75.5 13.8417 124.575 31.4583 130.867 31.4583 188.75C31.4583 192.21 34.2896 195.042 37.75 195.042 41.2104 195.042 44.0417 192.21 44.0417 188.75L44.0417 135.271 151 172.706Z" fill="#00883A" transform="matrix(1.00331 0 0 1 564 305)"/></g></g></g></g></svg>