<?xml version="1.0" encoding="UTF-8" standalone="no"?>
<svg
   width="492"
   height="492"
   overflow="hidden"
   version="1.1"
   id="svg14"
   sodipodi:docname="symposium.svg"
   inkscape:version="1.4.3 (0d15f75, 2025-12-25)"
   xmlns:inkscape="http://www.inkscape.org/namespaces/inkscape"
   xmlns:sodipodi="http://sodipodi.sourceforge.net/DTD/sodipodi-0.dtd"
   xmlns="http://www.w3.org/2000/svg"
   xmlns:svg="http://www.w3.org/2000/svg">
  <defs
     id="defs14" />
  <sodipodi:namedview
     id="namedview14"
     pagecolor="#ffffff"
     bordercolor="#000000"
     borderopacity="0.25"
     inkscape:showpageshadow="2"
     inkscape:pageopacity="0.0"
     inkscape:pagecheckerboard="0"
     inkscape:deskcolor="#d1d1d1"
     inkscape:zoom="0.6875"
     inkscape:cx="245.81818"
     inkscape:cy="246.54545"
     inkscape:window-width="1024"
     inkscape:window-height="1186"
     inkscape:window-x="0"
     inkscape:window-y="25"
     inkscape:window-maximized="0"
     inkscape:current-layer="svg14" />
  <g
     id="g14"
     transform="translate(-394,-114)">
    <path
       d="M 394,270.043 C 394,183.863 463.863,114 550.043,114 H 729.957 C 816.137,114 886,183.863 886,270.043 V 449.957 C 886,536.137 816.137,606 729.957,606 H 550.043 C 463.863,606 394,536.137 394,449.957 Z"
       fill="#fceebd"
       fill-rule="evenodd"
       id="path1" />
    <g
       id="g5">
      <g
         id="g4">
        <g
           id="g3">
          <path
             d="m 116.375,74.8125 h 44.333 V 66.5 c 0,-6.0958 -4.987,-11.0833 -11.083,-11.0833 H 33.25 c -6.0958,0 -11.0833,4.9875 -11.0833,11.0833 v 74.812 c 0,6.096 4.9875,11.084 11.0833,11.084 h 16.625 v 27.708 l 27.7083,-27.708 h 16.625 V 96.9792 c 0,-12.1917 9.9747,-22.1667 22.1667,-22.1667 z"
             fill="#00883a"
             transform="matrix(1,0,0,1.00376,507,114)"
             id="path2" />
          <path
             d="M 232.75,85.8958 H 116.375 c -6.096,0 -11.083,4.9875 -11.083,11.0834 v 74.8128 c 0,6.095 4.987,11.083 11.083,11.083 h 72.042 l 27.708,27.708 v -27.708 h 16.625 c 6.096,0 11.083,-4.988 11.083,-11.083 V 96.9792 c 0,-6.0959 -4.987,-11.0834 -11.083,-11.0834 z"
             fill="#00883a"
             transform="matrix(1,0,0,1.00376,507,114)"
             id="path3" />
        </g>
      </g>
    </g>
    <g
       id="g13">
      <g
         id="g12">
        <g
           id="g11">
          <path
             d="m 191.354,93.5896 c 0,13.5684 -10.785,24.3544 -24.354,24.3544 -13.569,0 -24.354,-10.786 -24.354,-24.3544 0,-13.5688 10.785,-24.3542 24.354,-24.3542 13.569,0 24.354,11.1334 24.354,24.3542"
             fill="#00883a"
             transform="matrix(1,0,0,1.00299,473,271)"
             id="path5" />
          <path
             d="m 288.771,107.506 c 0,13.569 -10.786,24.354 -24.354,24.354 -13.569,0 -24.355,-10.785 -24.355,-24.354 0,-13.5685 10.786,-24.3539 24.355,-24.3539 13.568,0 24.354,10.7854 24.354,24.3539"
             fill="#00883a"
             transform="matrix(1,0,0,1.00299,473,271)"
             id="path6" />
          <path
             d="m 93.9375,107.506 c 0,13.569 -10.7854,24.354 -24.3542,24.354 -13.5687,0 -24.3541,-10.785 -24.3541,-24.354 0,-13.5685 10.7854,-24.3539 24.3541,-24.3539 13.5688,0 24.3542,10.7854 24.3542,24.3539"
             fill="#00883a"
             transform="matrix(1,0,0,1.00299,473,271)"
             id="path7" />
          <path
             d="m 29.9208,264.765 c 0,-50.796 61.2334,-91.85 137.0792,-91.85 75.498,0 137.079,41.054 137.079,91.85 z"
             fill="#00883a"
             transform="matrix(1,0,0,1.00299,473,271)"
             id="path8" />
          <path
             d="m 61.2333,185.788 c 14.6125,-9.742 31.6605,-17.396 50.0997,-22.267 v -3.827 c 0,-3.827 -1.739,-7.654 -4.175,-10.09 -1.043,-1.044 -3.479,-2.435 -6.61,-3.827 -19.1355,-9.046 -41.7501,-9.046 -61.2334,-0.348 -3.4792,1.392 -6.2625,3.131 -7.6542,4.175 -2.0875,2.436 -3.8271,6.263 -3.8271,10.09 v 59.146 c 8.0021,-12.177 19.1355,-23.659 33.4,-33.052"
             fill="#00883a"
             transform="matrix(1,0,0,1.00299,473,271)"
             id="path9" />
          <path
             d="m 208.75,160.042 v -14.265 c 0,-3.827 -1.74,-7.654 -4.175,-10.089 -1.044,-1.044 -3.479,-2.436 -6.61,-3.828 -19.136,-9.045 -41.75,-9.045 -61.234,-0.348 -3.479,1.392 -6.262,3.132 -7.654,4.176 -2.783,2.435 -4.175,6.262 -4.175,10.089 v 14.265 c 13.569,-2.784 27.485,-4.175 41.75,-4.175 14.265,0 28.529,1.739 42.098,4.175"
             fill="#00883a"
             transform="matrix(1,0,0,1.00299,473,271)"
             id="path10" />
          <path
             d="m 306.167,218.84 v -59.146 c 0,-3.827 -1.74,-7.654 -4.175,-10.09 -1.044,-1.044 -3.479,-2.435 -6.611,-3.827 -19.135,-9.046 -41.75,-9.046 -61.233,-0.348 -3.479,1.392 -6.263,3.131 -7.654,4.175 -2.784,2.436 -4.175,6.263 -4.175,10.09 v 3.827 c 18.439,4.871 35.487,12.525 50.1,22.267 14.612,9.393 25.746,20.875 33.748,33.052"
             fill="#00883a"
             transform="matrix(1,0,0,1.00299,473,271)"
             id="path11" />
        </g>
      </g>
    </g>
  </g>
</svg>
