<?xml version="1.0" encoding="UTF-8" standalone="no"?>
<svg
   width="492"
   height="492"
   overflow="hidden"
   version="1.1"
   id="svg5"
   sodipodi:docname="toolbox.svg"
   inkscape:version="1.4.3 (0d15f75, 2025-12-25)"
   xmlns:inkscape="http://www.inkscape.org/namespaces/inkscape"
   xmlns:sodipodi="http://sodipodi.sourceforge.net/DTD/sodipodi-0.dtd"
   xmlns="http://www.w3.org/2000/svg"
   xmlns:svg="http://www.w3.org/2000/svg">
  <defs
     id="defs5" />
  <sodipodi:namedview
     id="namedview5"
     pagecolor="#ffffff"
     bordercolor="#000000"
     borderopacity="0.25"
     inkscape:showpageshadow="2"
     inkscape:pageopacity="0.0"
     inkscape:pagecheckerboard="0"
     inkscape:deskcolor="#d1d1d1"
     inkscape:zoom="0.6875"
     inkscape:cx="245.81818"
     inkscape:cy="246.54545"
     inkscape:window-width="1024"
     inkscape:window-height="1186"
     inkscape:window-x="31"
     inkscape:window-y="52"
     inkscape:window-maximized="0"
     inkscape:current-layer="svg5" />
  <g
     id="g5"
     transform="translate(-394,-114)">
    <path
       d="M 394,270.043 C 394,183.863 463.863,114 550.043,114 H 729.957 C 816.137,114 886,183.863 886,270.043 V 449.957 C 886,536.137 816.137,606 729.957,606 H 550.043 C 463.863,606 394,536.137 394,449.957 Z"
       fill="#fceebd"
       fill-rule="evenodd"
       id="path1" />
    <rect
       x="491"
       y="389"
       width="300"
       height="96"
       fill="#00883a"
       id="rect2" />
    <rect
       x="475"
       y="280"
       width="330"
       height="84"
       fill="#00883a"
       id="rect3" />
    <path
       d="M 708,263 H 684 V 239 H 574 v -24 h 134 z"
       fill="#00883a"
       fill-rule="evenodd"
       id="path3" />
    <path
       d="m 0,0 h 24 v 24 h 80 V 48 H 0 Z"
       fill="#00883a"
       fill-rule="evenodd"
       transform="matrix(1,0,0,-1,574,263)"
       id="path4" />
    <path
       d="m 719,529.855 3.104,-11.63 11.597,-3.112 14.701,14.742 c 3.267,-8.845 1.47,-18.673 -4.9,-25.716 -6.371,-6.88 -16.008,-9.828 -24.992,-7.207 l -63.379,-63.554 c 2.451,-9.009 -0.49,-18.673 -7.35,-24.897 -6.861,-6.224 -16.662,-8.19 -25.482,-4.914 l 14.701,14.742 -3.104,11.466 -11.597,3.112 -14.701,-14.742 c -3.267,8.845 -1.471,18.673 4.9,25.716 6.37,6.88 16.008,9.828 24.992,7.207 l 63.378,63.554 c -2.45,9.009 0.491,18.673 7.351,24.897 6.861,6.225 16.661,8.19 25.482,4.914 z"
       fill="#fceebd"
       fill-rule="evenodd"
       id="path5" />
  </g>
</svg>
