<?xml version="1.0" encoding="UTF-8" standalone="no"?>
<svg
   width="492"
   height="492"
   overflow="hidden"
   version="1.1"
   id="svg15"
   sodipodi:docname="workshop.svg"
   inkscape:version="1.4.3 (0d15f75, 2025-12-25)"
   xmlns:inkscape="http://www.inkscape.org/namespaces/inkscape"
   xmlns:sodipodi="http://sodipodi.sourceforge.net/DTD/sodipodi-0.dtd"
   xmlns="http://www.w3.org/2000/svg"
   xmlns:svg="http://www.w3.org/2000/svg">
  <defs
     id="defs15" />
  <sodipodi:namedview
     id="namedview15"
     pagecolor="#ffffff"
     bordercolor="#000000"
     borderopacity="0.25"
     inkscape:showpageshadow="2"
     inkscape:pageopacity="0.0"
     inkscape:pagecheckerboard="0"
     inkscape:deskcolor="#d1d1d1"
     inkscape:zoom="0.6875"
     inkscape:cx="245.81818"
     inkscape:cy="246.54545"
     inkscape:window-width="1024"
     inkscape:window-height="1186"
     inkscape:window-x="0"
     inkscape:window-y="25"
     inkscape:window-maximized="0"
     inkscape:current-layer="svg15" />
  <g
     id="g15"
     transform="translate(-394,-114)">
    <path
       d="M 394,270.043 C 394,183.863 463.863,114 550.043,114 H 729.957 C 816.137,114 886,183.863 886,270.043 V 449.957 C 886,536.137 816.137,606 729.957,606 H 550.043 C 463.863,606 394,536.137 394,449.957 Z"
       fill="#fceebd"
       fill-rule="evenodd"
       id="path1" />
    <g
       id="g12">
      <g
         id="g11">
        <g
           id="g10">
          <path
             d="m 630.042,443.917 c 0,10.447 -8.47,18.916 -18.917,18.916 -10.447,0 -18.917,-8.469 -18.917,-18.916 0,-10.448 8.47,-18.917 18.917,-18.917 10.447,0 18.917,8.469 18.917,18.917 z"
             fill="#00883a"
             id="path2" />
          <path
             d="m 648.333,505.833 v -18.916 c -0.061,-2.948 -1.436,-5.714 -3.75,-7.542 -5.436,-4.19 -11.655,-7.25 -18.291,-9 -5.01,-1.538 -10.219,-2.324 -15.459,-2.333 -5.234,0.08 -10.433,0.865 -15.458,2.333 -6.563,1.943 -12.748,4.986 -18.292,9 -2.313,1.828 -3.688,4.594 -3.75,7.542 v 18.916 z"
             fill="#00883a"
             id="path3" />
          <path
             d="m 712.792,443.917 c 0,10.447 -8.47,18.916 -18.917,18.916 -10.447,0 -18.917,-8.469 -18.917,-18.916 0,-10.448 8.47,-18.917 18.917,-18.917 10.447,0 18.917,8.469 18.917,18.917 z"
             fill="#00883a"
             id="path4" />
          <path
             d="m 731.667,505.833 v -18.916 c -0.062,-2.948 -1.437,-5.714 -3.75,-7.542 -5.436,-4.19 -11.656,-7.25 -18.292,-9 -5.009,-1.538 -10.219,-2.324 -15.458,-2.333 -5.235,0.08 -10.434,0.865 -15.459,2.333 -6.562,1.943 -12.748,4.986 -18.291,9 -2.314,1.828 -3.689,4.594 -3.75,7.542 v 18.916 z"
             fill="#00883a"
             id="path5" />
          <path
             d="m 796.125,443.917 c 0,10.447 -8.469,18.916 -18.917,18.916 -10.447,0 -18.916,-8.469 -18.916,-18.916 0,-10.448 8.469,-18.917 18.916,-18.917 10.448,0 18.917,8.469 18.917,18.917 z"
             fill="#00883a"
             id="path6" />
          <path
             d="m 815,505.833 v -18.916 c -0.062,-2.948 -1.437,-5.714 -3.75,-7.542 -5.436,-4.19 -11.655,-7.25 -18.292,-9 -5.009,-1.538 -10.218,-2.324 -15.458,-2.333 -5.234,0.08 -10.434,0.865 -15.458,2.333 -6.563,1.943 -12.748,4.986 -18.292,9 -2.313,1.828 -3.688,4.594 -3.75,7.542 v 18.916 z"
             fill="#00883a"
             id="path7" />
          <path
             d="m 554.25,269 c 0,13.669 -11.081,24.75 -24.75,24.75 -13.669,0 -24.75,-11.081 -24.75,-24.75 0,-13.669 11.081,-24.75 24.75,-24.75 13.669,0 24.75,11.081 24.75,24.75 z"
             fill="#00883a"
             id="path8" />
          <path
             d="m 675.458,259.458 c -2.449,-2.414 -6.383,-2.414 -8.833,0 l -53.833,53.834 c -4.302,-1.214 -8.926,-0.039 -12.125,3.083 -0.875,0.875 -16.417,26.292 -16.417,26.292 l -4.667,-19.875 c -0.618,-2.563 -1.896,-4.919 -3.708,-6.834 -7.68,-6.208 -16.518,-10.825 -26,-13.583 -6.703,-1.434 -13.523,-2.257 -20.375,-2.458 -6.913,0.106 -13.78,1.143 -20.417,3.083 -9.568,2.508 -18.443,7.152 -25.958,13.583 -1.828,1.903 -3.109,4.264 -3.708,6.834 0,0 -17.959,75.416 -17.959,76.666 0,6.904 5.597,12.5 12.5,12.5 5.533,-0.142 10.313,-3.905 11.75,-9.25 l 13,-53.791 V 522.5 h 24.625 V 411.208 h 12.5 V 522.5 h 24.584 V 348.75 L 565,368.333 c 0.318,1.354 1.218,2.498 2.458,3.125 4.792,3.678 10.629,5.735 16.667,5.875 3.932,0.551 7.828,-1.219 10,-4.541 l 25.417,-41.667 c 1.624,-2.562 2.234,-5.638 1.708,-8.625 l 54.167,-54.167 c 2.453,-2.443 2.472,-6.409 0.041,-8.875 z"
             fill="#00883a"
             id="path9" />
          <path
             d="M 760.833,201.667 H 556.667 c -9.205,0 -16.667,7.462 -16.667,16.666 v 15 c 6.371,1.734 12.138,5.195 16.667,10 v -25 h 204.166 v 137.5 H 618.625 L 608.458,372.5 h 152.375 c 9.205,0 16.667,-7.462 16.667,-16.667 v -137.5 c 0,-9.204 -7.462,-16.666 -16.667,-16.666 z"
             fill="#00883a"
             id="path10" />
        </g>
      </g>
    </g>
    <path
       d="M 622,247 H 749.462"
       stroke="#00883a"
       stroke-width="8"
       stroke-linejoin="round"
       stroke-miterlimit="10"
       fill="none"
       fill-rule="evenodd"
       id="path12" />
    <path
       d="m 686,274 h 63.731"
       stroke="#00883a"
       stroke-width="8"
       stroke-linejoin="round"
       stroke-miterlimit="10"
       fill="none"
       fill-rule="evenodd"
       id="path13" />
    <path
       d="m 686,301 h 63.731"
       stroke="#00883a"
       stroke-width="8"
       stroke-linejoin="round"
       stroke-miterlimit="10"
       fill="none"
       fill-rule="evenodd"
       id="path14" />
    <path
       d="m 663,328 h 86.319"
       stroke="#00883a"
       stroke-width="8"
       stroke-linejoin="round"
       stroke-miterlimit="10"
       fill="none"
       fill-rule="evenodd"
       id="path15" />
  </g>
</svg>
